<mxfile host="app.diagrams.net" modified="2024-01-28T23:09:12.878Z" agent="Mozilla/5.0 (Windows NT 10.0; Win64; x64) AppleWebKit/537.36 (KHTML, like Gecko) Chrome/120.0.0.0 Safari/537.36" etag="81XZEosOoK9BWp3vsLpq" version="23.0.2" type="device" pages="2">
  <diagram name="Page1" id="V71L2IKp8uBHHM7AexjM">
    <mxGraphModel dx="1050" dy="530" grid="1" gridSize="10" guides="1" tooltips="1" connect="1" arrows="1" fold="1" page="1" pageScale="1" pageWidth="827" pageHeight="1169" math="0" shadow="0">
      <root>
        <mxCell id="waEW5tWvIozQSPhYbR8s-0" />
        <mxCell id="waEW5tWvIozQSPhYbR8s-1" parent="waEW5tWvIozQSPhYbR8s-0" />
        <mxCell id="YspYGcWasc7SpstmC-S5-72" value="" style="group" parent="waEW5tWvIozQSPhYbR8s-1" vertex="1" connectable="0">
          <mxGeometry x="90" y="802" width="276.56" height="196" as="geometry" />
        </mxCell>
        <mxCell id="JDPn0RA8MX59J3vMQz3J-1" value="&lt;span style=&quot;font-size: 16px;&quot;&gt;0&lt;/span&gt;" style="whiteSpace=wrap;html=1;aspect=fixed;" parent="YspYGcWasc7SpstmC-S5-72" vertex="1">
          <mxGeometry x="30" y="38" width="60" height="60" as="geometry" />
        </mxCell>
        <mxCell id="JDPn0RA8MX59J3vMQz3J-2" value="&lt;span style=&quot;font-size: 16px;&quot;&gt;&lt;font face=&quot;Helvetica&quot;&gt;0&lt;/font&gt;&lt;/span&gt;" style="whiteSpace=wrap;html=1;aspect=fixed;" parent="YspYGcWasc7SpstmC-S5-72" vertex="1">
          <mxGeometry x="90" y="38" width="60" height="60" as="geometry" />
        </mxCell>
        <mxCell id="JDPn0RA8MX59J3vMQz3J-3" value="&lt;span style=&quot;font-size: 16px;&quot;&gt;&lt;font face=&quot;Helvetica&quot;&gt;0&lt;/font&gt;&lt;/span&gt;" style="whiteSpace=wrap;html=1;aspect=fixed;" parent="YspYGcWasc7SpstmC-S5-72" vertex="1">
          <mxGeometry x="210" y="38" width="60" height="60" as="geometry" />
        </mxCell>
        <mxCell id="JDPn0RA8MX59J3vMQz3J-4" value="&lt;span style=&quot;font-size: 16px;&quot;&gt;&lt;font face=&quot;Helvetica&quot;&gt;0&lt;/font&gt;&lt;/span&gt;" style="whiteSpace=wrap;html=1;aspect=fixed;" parent="YspYGcWasc7SpstmC-S5-72" vertex="1">
          <mxGeometry x="150" y="38" width="60" height="60" as="geometry" />
        </mxCell>
        <mxCell id="JDPn0RA8MX59J3vMQz3J-5" value="&lt;span style=&quot;font-size: 16px;&quot;&gt;&lt;font style=&quot;&quot; face=&quot;Helvetica&quot;&gt;1&lt;/font&gt;&lt;/span&gt;" style="whiteSpace=wrap;html=1;aspect=fixed;" parent="YspYGcWasc7SpstmC-S5-72" vertex="1">
          <mxGeometry x="30" y="98" width="60" height="60" as="geometry" />
        </mxCell>
        <mxCell id="JDPn0RA8MX59J3vMQz3J-6" value="&lt;span style=&quot;font-size: 16px;&quot;&gt;&lt;font face=&quot;Helvetica&quot;&gt;0&lt;/font&gt;&lt;/span&gt;" style="whiteSpace=wrap;html=1;aspect=fixed;" parent="YspYGcWasc7SpstmC-S5-72" vertex="1">
          <mxGeometry x="90" y="98" width="60" height="60" as="geometry" />
        </mxCell>
        <mxCell id="JDPn0RA8MX59J3vMQz3J-7" value="&lt;span style=&quot;font-size: 16px;&quot;&gt;&lt;font face=&quot;Helvetica&quot;&gt;1&lt;/font&gt;&lt;/span&gt;" style="whiteSpace=wrap;html=1;aspect=fixed;" parent="YspYGcWasc7SpstmC-S5-72" vertex="1">
          <mxGeometry x="210" y="98" width="60" height="60" as="geometry" />
        </mxCell>
        <mxCell id="JDPn0RA8MX59J3vMQz3J-8" value="&lt;span style=&quot;font-size: 16px;&quot;&gt;&lt;font face=&quot;Helvetica&quot;&gt;0&lt;/font&gt;&lt;/span&gt;" style="whiteSpace=wrap;html=1;aspect=fixed;" parent="YspYGcWasc7SpstmC-S5-72" vertex="1">
          <mxGeometry x="150" y="98" width="60" height="60" as="geometry" />
        </mxCell>
        <mxCell id="JDPn0RA8MX59J3vMQz3J-9" value="" style="endArrow=none;html=1;rounded=0;" parent="YspYGcWasc7SpstmC-S5-72" edge="1">
          <mxGeometry width="50" height="50" relative="1" as="geometry">
            <mxPoint x="20" y="158" as="sourcePoint" />
            <mxPoint x="20" y="98" as="targetPoint" />
          </mxGeometry>
        </mxCell>
        <mxCell id="JDPn0RA8MX59J3vMQz3J-10" value="A" style="text;html=1;strokeColor=none;fillColor=none;align=center;verticalAlign=middle;whiteSpace=wrap;rounded=0;fontSize=16;" parent="YspYGcWasc7SpstmC-S5-72" vertex="1">
          <mxGeometry y="113" width="20" height="30" as="geometry" />
        </mxCell>
        <mxCell id="JDPn0RA8MX59J3vMQz3J-11" value="" style="endArrow=none;html=1;rounded=0;" parent="YspYGcWasc7SpstmC-S5-72" edge="1">
          <mxGeometry width="50" height="50" relative="1" as="geometry">
            <mxPoint x="270" y="28" as="sourcePoint" />
            <mxPoint x="150" y="28" as="targetPoint" />
          </mxGeometry>
        </mxCell>
        <mxCell id="JDPn0RA8MX59J3vMQz3J-12" value="" style="endArrow=none;html=1;rounded=0;" parent="YspYGcWasc7SpstmC-S5-72" edge="1">
          <mxGeometry width="50" height="50" relative="1" as="geometry">
            <mxPoint x="210" y="168" as="sourcePoint" />
            <mxPoint x="90" y="168" as="targetPoint" />
          </mxGeometry>
        </mxCell>
        <mxCell id="JDPn0RA8MX59J3vMQz3J-13" value="B" style="text;html=1;strokeColor=none;fillColor=none;align=center;verticalAlign=middle;whiteSpace=wrap;rounded=0;fontSize=16;" parent="YspYGcWasc7SpstmC-S5-72" vertex="1">
          <mxGeometry x="200" width="20" height="30" as="geometry" />
        </mxCell>
        <mxCell id="JDPn0RA8MX59J3vMQz3J-14" value="C" style="text;html=1;strokeColor=none;fillColor=none;align=center;verticalAlign=middle;whiteSpace=wrap;rounded=0;fontSize=16;" parent="YspYGcWasc7SpstmC-S5-72" vertex="1">
          <mxGeometry x="140" y="166" width="20" height="30" as="geometry" />
        </mxCell>
        <mxCell id="QBD5v3AYEl2sv9KxKQAq-9" value="" style="shape=image;verticalLabelPosition=bottom;labelBackgroundColor=default;verticalAlign=top;aspect=fixed;imageAspect=0;image=data:image/svg+xml,PHN2ZyB4bWxucz0iaHR0cDovL3d3dy53My5vcmcvMjAwMC9zdmciIGlkPSJzdmc5NzgiIHZlcnNpb249IjEuMSIgdmlld0JveD0iMCAwIDE0LjU5ODU5MiAxMC44NDc5MTciIGhlaWdodD0iMTAuODQ3OTE3bW0iIHdpZHRoPSIxNC41OTg1OTJtbSI+JiN4YTsgIDxkZWZzIGlkPSJkZWZzOTcyIi8+JiN4YTsgICYjeGE7ICA8bWV0YWRhdGEgaWQ9Im1ldGFkYXRhOTc1Ij4mI3hhOyAgICAmI3hhOyAgICAgICYjeGE7ICAgICAgICBpbWFnZS9zdmcreG1sJiN4YTsgICAgICAgICYjeGE7ICAgICAgICAmI3hhOyAgICAgICYjeGE7ICAgICYjeGE7ICA8L21ldGFkYXRhPiYjeGE7ICA8ZyB0cmFuc2Zvcm09InRyYW5zbGF0ZSgtNzguNjc1ODE2LC0xNDMuNDA5MzMpIiBpZD0ibGF5ZXIxIj4mI3hhOyAgICA8cGF0aCBpZD0icmVjdDEwMCIgdHJhbnNmb3JtPSJzY2FsZSgwLjI2NDU4MzMzKSIgZD0ibSAzMDMuODU3NDIsNTQyLjUxOTUzIGMgLTMuMzI0LDAgLTYsMi42NzYgLTYsNiB2IDI4IGMgMCwzLjMyNCAyLjY3Niw2IDYsNiBoIDQ4LjE3NTc4IHYgLTQwIHoiIHN0eWxlPSJmaWxsOiNmYTY4MDA7ZmlsbC1vcGFjaXR5OjAuNTtzdHJva2U6I2M3MzUwMDtzdHJva2Utd2lkdGg6MC45OTk5OTk5NDtzdHJva2Utb3BhY2l0eTowLjUiLz4mI3hhOyAgPC9nPiYjeGE7PC9zdmc+;" parent="YspYGcWasc7SpstmC-S5-72" vertex="1">
          <mxGeometry x="222" y="108" width="54.56" height="40" as="geometry" />
        </mxCell>
        <mxCell id="omMh-bWQXBRA8xrxNxAC-0" value="" style="shape=image;verticalLabelPosition=bottom;labelBackgroundColor=default;verticalAlign=top;aspect=fixed;imageAspect=0;image=data:image/svg+xml,PHN2ZyB4bWxucz0iaHR0cDovL3d3dy53My5vcmcvMjAwMC9zdmciIGlkPSJzdmc5NzgiIHZlcnNpb249IjEuMSIgdmlld0JveD0iMCAwIDE0LjU5ODU5MiAxMC44NDc5MTciIGhlaWdodD0iMTAuODQ3OTE3bW0iIHdpZHRoPSIxNC41OTg1OTJtbSI+JiN4YTsgIDxkZWZzIGlkPSJkZWZzOTcyIi8+JiN4YTsgICYjeGE7ICA8bWV0YWRhdGEgaWQ9Im1ldGFkYXRhOTc1Ij4mI3hhOyAgICAmI3hhOyAgICAgICYjeGE7ICAgICAgICBpbWFnZS9zdmcreG1sJiN4YTsgICAgICAgICYjeGE7ICAgICAgICAmI3hhOyAgICAgICYjeGE7ICAgICYjeGE7ICA8L21ldGFkYXRhPiYjeGE7ICA8ZyB0cmFuc2Zvcm09InRyYW5zbGF0ZSgtNzguNjc1ODE2LC0xNDMuNDA5MzMpIiBpZD0ibGF5ZXIxIj4mI3hhOyAgICA8cGF0aCBpZD0icmVjdDEwMCIgdHJhbnNmb3JtPSJzY2FsZSgwLjI2NDU4MzMzKSIgZD0ibSAzMDMuODU3NDIsNTQyLjUxOTUzIGMgLTMuMzI0LDAgLTYsMi42NzYgLTYsNiB2IDI4IGMgMCwzLjMyNCAyLjY3Niw2IDYsNiBoIDQ4LjE3NTc4IHYgLTQwIHoiIHN0eWxlPSJmaWxsOiNmYTY4MDA7ZmlsbC1vcGFjaXR5OjAuNTtzdHJva2U6I2M3MzUwMDtzdHJva2Utd2lkdGg6MC45OTk5OTk5NDtzdHJva2Utb3BhY2l0eTowLjUiLz4mI3hhOyAgPC9nPiYjeGE7PC9zdmc+;flipV=1;flipH=1;" parent="YspYGcWasc7SpstmC-S5-72" vertex="1">
          <mxGeometry x="25" y="108" width="54.56" height="40" as="geometry" />
        </mxCell>
        <mxCell id="YspYGcWasc7SpstmC-S5-73" value="" style="group" parent="waEW5tWvIozQSPhYbR8s-1" vertex="1" connectable="0">
          <mxGeometry x="90" y="282" width="270" height="196" as="geometry" />
        </mxCell>
        <mxCell id="YspYGcWasc7SpstmC-S5-4" value="&lt;span style=&quot;font-size: 16px;&quot;&gt;&lt;font face=&quot;Helvetica&quot;&gt;1&lt;/font&gt;&lt;/span&gt;" style="whiteSpace=wrap;html=1;aspect=fixed;" parent="YspYGcWasc7SpstmC-S5-73" vertex="1">
          <mxGeometry x="150" y="38" width="60" height="60" as="geometry" />
        </mxCell>
        <mxCell id="YspYGcWasc7SpstmC-S5-1" value="&lt;span style=&quot;font-size: 16px;&quot;&gt;1&lt;/span&gt;" style="whiteSpace=wrap;html=1;aspect=fixed;" parent="YspYGcWasc7SpstmC-S5-73" vertex="1">
          <mxGeometry x="30" y="38" width="60" height="60" as="geometry" />
        </mxCell>
        <mxCell id="YspYGcWasc7SpstmC-S5-2" value="&lt;span style=&quot;font-size: 16px;&quot;&gt;&lt;font face=&quot;Helvetica&quot;&gt;1&lt;/font&gt;&lt;/span&gt;" style="whiteSpace=wrap;html=1;aspect=fixed;" parent="YspYGcWasc7SpstmC-S5-73" vertex="1">
          <mxGeometry x="90" y="38" width="60" height="60" as="geometry" />
        </mxCell>
        <mxCell id="YspYGcWasc7SpstmC-S5-3" value="&lt;span style=&quot;font-size: 16px;&quot;&gt;&lt;font face=&quot;Helvetica&quot;&gt;1&lt;/font&gt;&lt;/span&gt;" style="whiteSpace=wrap;html=1;aspect=fixed;" parent="YspYGcWasc7SpstmC-S5-73" vertex="1">
          <mxGeometry x="210" y="38" width="60" height="60" as="geometry" />
        </mxCell>
        <mxCell id="YspYGcWasc7SpstmC-S5-5" value="&lt;span style=&quot;font-size: 16px;&quot;&gt;&lt;font style=&quot;&quot; face=&quot;Helvetica&quot;&gt;0&lt;/font&gt;&lt;/span&gt;" style="whiteSpace=wrap;html=1;aspect=fixed;" parent="YspYGcWasc7SpstmC-S5-73" vertex="1">
          <mxGeometry x="30" y="98" width="60" height="60" as="geometry" />
        </mxCell>
        <mxCell id="YspYGcWasc7SpstmC-S5-6" value="&lt;span style=&quot;font-size: 16px;&quot;&gt;&lt;font face=&quot;Helvetica&quot;&gt;0&lt;/font&gt;&lt;/span&gt;" style="whiteSpace=wrap;html=1;aspect=fixed;" parent="YspYGcWasc7SpstmC-S5-73" vertex="1">
          <mxGeometry x="90" y="98" width="60" height="60" as="geometry" />
        </mxCell>
        <mxCell id="YspYGcWasc7SpstmC-S5-7" value="&lt;span style=&quot;font-size: 16px;&quot;&gt;&lt;font face=&quot;Helvetica&quot;&gt;0&lt;/font&gt;&lt;/span&gt;" style="whiteSpace=wrap;html=1;aspect=fixed;" parent="YspYGcWasc7SpstmC-S5-73" vertex="1">
          <mxGeometry x="210" y="98" width="60" height="60" as="geometry" />
        </mxCell>
        <mxCell id="YspYGcWasc7SpstmC-S5-8" value="&lt;span style=&quot;font-size: 16px;&quot;&gt;&lt;font face=&quot;Helvetica&quot;&gt;0&lt;/font&gt;&lt;/span&gt;" style="whiteSpace=wrap;html=1;aspect=fixed;" parent="YspYGcWasc7SpstmC-S5-73" vertex="1">
          <mxGeometry x="150" y="98" width="60" height="60" as="geometry" />
        </mxCell>
        <mxCell id="YspYGcWasc7SpstmC-S5-9" value="" style="endArrow=none;html=1;rounded=0;" parent="YspYGcWasc7SpstmC-S5-73" edge="1">
          <mxGeometry width="50" height="50" relative="1" as="geometry">
            <mxPoint x="20" y="158" as="sourcePoint" />
            <mxPoint x="20" y="98" as="targetPoint" />
          </mxGeometry>
        </mxCell>
        <mxCell id="YspYGcWasc7SpstmC-S5-10" value="A" style="text;html=1;strokeColor=none;fillColor=none;align=center;verticalAlign=middle;whiteSpace=wrap;rounded=0;fontSize=16;" parent="YspYGcWasc7SpstmC-S5-73" vertex="1">
          <mxGeometry y="113" width="20" height="30" as="geometry" />
        </mxCell>
        <mxCell id="YspYGcWasc7SpstmC-S5-11" value="" style="endArrow=none;html=1;rounded=0;" parent="YspYGcWasc7SpstmC-S5-73" edge="1">
          <mxGeometry width="50" height="50" relative="1" as="geometry">
            <mxPoint x="270" y="28" as="sourcePoint" />
            <mxPoint x="150" y="28" as="targetPoint" />
          </mxGeometry>
        </mxCell>
        <mxCell id="YspYGcWasc7SpstmC-S5-12" value="" style="endArrow=none;html=1;rounded=0;" parent="YspYGcWasc7SpstmC-S5-73" edge="1">
          <mxGeometry width="50" height="50" relative="1" as="geometry">
            <mxPoint x="210" y="168" as="sourcePoint" />
            <mxPoint x="90" y="168" as="targetPoint" />
          </mxGeometry>
        </mxCell>
        <mxCell id="YspYGcWasc7SpstmC-S5-13" value="B" style="text;html=1;strokeColor=none;fillColor=none;align=center;verticalAlign=middle;whiteSpace=wrap;rounded=0;fontSize=16;" parent="YspYGcWasc7SpstmC-S5-73" vertex="1">
          <mxGeometry x="200" width="20" height="30" as="geometry" />
        </mxCell>
        <mxCell id="YspYGcWasc7SpstmC-S5-14" value="C" style="text;html=1;strokeColor=none;fillColor=none;align=center;verticalAlign=middle;whiteSpace=wrap;rounded=0;fontSize=16;" parent="YspYGcWasc7SpstmC-S5-73" vertex="1">
          <mxGeometry x="140" y="166" width="20" height="30" as="geometry" />
        </mxCell>
        <mxCell id="YspYGcWasc7SpstmC-S5-15" value="" style="rounded=1;whiteSpace=wrap;html=1;fillColor=#fa6800;fontColor=#000000;strokeColor=#C73500;opacity=50;" parent="YspYGcWasc7SpstmC-S5-73" vertex="1">
          <mxGeometry x="39.56" y="48" width="220.44" height="40" as="geometry" />
        </mxCell>
        <mxCell id="rlrm9YRFsJypaHiKC0p6-0" value="" style="group" vertex="1" connectable="0" parent="waEW5tWvIozQSPhYbR8s-1">
          <mxGeometry x="88" y="80" width="672" height="160" as="geometry" />
        </mxCell>
        <mxCell id="YspYGcWasc7SpstmC-S5-19" value="" style="group" parent="rlrm9YRFsJypaHiKC0p6-0" vertex="1" connectable="0">
          <mxGeometry width="192" height="160" as="geometry" />
        </mxCell>
        <mxCell id="YspYGcWasc7SpstmC-S5-20" value="&lt;font style=&quot;font-size: 16px;&quot;&gt;1&lt;/font&gt;" style="whiteSpace=wrap;html=1;aspect=fixed;" parent="YspYGcWasc7SpstmC-S5-19" vertex="1">
          <mxGeometry x="32" y="40" width="40" height="40" as="geometry" />
        </mxCell>
        <mxCell id="YspYGcWasc7SpstmC-S5-21" value="&lt;font style=&quot;font-size: 16px;&quot;&gt;1&lt;/font&gt;" style="whiteSpace=wrap;html=1;aspect=fixed;" parent="YspYGcWasc7SpstmC-S5-19" vertex="1">
          <mxGeometry x="72" y="40" width="40" height="40" as="geometry" />
        </mxCell>
        <mxCell id="YspYGcWasc7SpstmC-S5-22" value="&lt;font style=&quot;font-size: 16px;&quot;&gt;1&lt;/font&gt;" style="whiteSpace=wrap;html=1;aspect=fixed;" parent="YspYGcWasc7SpstmC-S5-19" vertex="1">
          <mxGeometry x="112" y="40" width="40" height="40" as="geometry" />
        </mxCell>
        <mxCell id="YspYGcWasc7SpstmC-S5-23" value="&lt;font style=&quot;font-size: 16px;&quot;&gt;1&lt;/font&gt;" style="whiteSpace=wrap;html=1;aspect=fixed;" parent="YspYGcWasc7SpstmC-S5-19" vertex="1">
          <mxGeometry x="152" y="40" width="40" height="40" as="geometry" />
        </mxCell>
        <mxCell id="YspYGcWasc7SpstmC-S5-24" value="&lt;font style=&quot;font-size: 16px;&quot;&gt;0&lt;/font&gt;" style="whiteSpace=wrap;html=1;aspect=fixed;fillColor=#E0E0E0;" parent="YspYGcWasc7SpstmC-S5-19" vertex="1">
          <mxGeometry x="32" y="80" width="40" height="40" as="geometry" />
        </mxCell>
        <mxCell id="YspYGcWasc7SpstmC-S5-25" value="&lt;font style=&quot;font-size: 16px;&quot;&gt;0&lt;/font&gt;" style="whiteSpace=wrap;html=1;aspect=fixed;fillColor=#E0E0E0;" parent="YspYGcWasc7SpstmC-S5-19" vertex="1">
          <mxGeometry x="72" y="80" width="40" height="40" as="geometry" />
        </mxCell>
        <mxCell id="YspYGcWasc7SpstmC-S5-26" value="&lt;font style=&quot;font-size: 16px;&quot;&gt;0&lt;/font&gt;" style="whiteSpace=wrap;html=1;aspect=fixed;fillColor=#E0E0E0;" parent="YspYGcWasc7SpstmC-S5-19" vertex="1">
          <mxGeometry x="112" y="80" width="40" height="40" as="geometry" />
        </mxCell>
        <mxCell id="YspYGcWasc7SpstmC-S5-27" value="&lt;font style=&quot;font-size: 16px;&quot;&gt;0&lt;/font&gt;" style="whiteSpace=wrap;html=1;aspect=fixed;fillColor=#E0E0E0;" parent="YspYGcWasc7SpstmC-S5-19" vertex="1">
          <mxGeometry x="152" y="80" width="40" height="40" as="geometry" />
        </mxCell>
        <mxCell id="YspYGcWasc7SpstmC-S5-28" value="" style="endArrow=none;html=1;rounded=0;" parent="YspYGcWasc7SpstmC-S5-19" edge="1">
          <mxGeometry width="50" height="50" relative="1" as="geometry">
            <mxPoint x="22" y="120" as="sourcePoint" />
            <mxPoint x="22" y="80" as="targetPoint" />
          </mxGeometry>
        </mxCell>
        <mxCell id="YspYGcWasc7SpstmC-S5-29" value="" style="endArrow=none;html=1;rounded=0;" parent="YspYGcWasc7SpstmC-S5-19" edge="1">
          <mxGeometry width="50" height="50" relative="1" as="geometry">
            <mxPoint x="112" y="30" as="sourcePoint" />
            <mxPoint x="192" y="30" as="targetPoint" />
          </mxGeometry>
        </mxCell>
        <mxCell id="YspYGcWasc7SpstmC-S5-30" value="" style="endArrow=none;html=1;rounded=0;" parent="YspYGcWasc7SpstmC-S5-19" edge="1">
          <mxGeometry width="50" height="50" relative="1" as="geometry">
            <mxPoint x="72" y="130" as="sourcePoint" />
            <mxPoint x="152" y="130" as="targetPoint" />
          </mxGeometry>
        </mxCell>
        <mxCell id="YspYGcWasc7SpstmC-S5-31" value="A" style="text;html=1;strokeColor=none;fillColor=none;align=center;verticalAlign=middle;whiteSpace=wrap;rounded=0;fontSize=16;" parent="YspYGcWasc7SpstmC-S5-19" vertex="1">
          <mxGeometry y="85" width="20" height="30" as="geometry" />
        </mxCell>
        <mxCell id="YspYGcWasc7SpstmC-S5-32" value="B" style="text;html=1;strokeColor=none;fillColor=none;align=center;verticalAlign=middle;whiteSpace=wrap;rounded=0;fontSize=16;" parent="YspYGcWasc7SpstmC-S5-19" vertex="1">
          <mxGeometry x="142" width="20" height="30" as="geometry" />
        </mxCell>
        <mxCell id="YspYGcWasc7SpstmC-S5-33" value="C" style="text;html=1;strokeColor=none;fillColor=none;align=center;verticalAlign=middle;whiteSpace=wrap;rounded=0;fontSize=16;" parent="YspYGcWasc7SpstmC-S5-19" vertex="1">
          <mxGeometry x="102" y="130" width="20" height="30" as="geometry" />
        </mxCell>
        <mxCell id="YspYGcWasc7SpstmC-S5-34" value="" style="group" parent="rlrm9YRFsJypaHiKC0p6-0" vertex="1" connectable="0">
          <mxGeometry x="240" width="192" height="160" as="geometry" />
        </mxCell>
        <mxCell id="YspYGcWasc7SpstmC-S5-35" value="&lt;font style=&quot;font-size: 16px;&quot;&gt;1&lt;/font&gt;" style="whiteSpace=wrap;html=1;aspect=fixed;" parent="YspYGcWasc7SpstmC-S5-34" vertex="1">
          <mxGeometry x="32" y="40" width="40" height="40" as="geometry" />
        </mxCell>
        <mxCell id="YspYGcWasc7SpstmC-S5-36" value="&lt;font style=&quot;font-size: 16px;&quot;&gt;1&lt;/font&gt;" style="whiteSpace=wrap;html=1;aspect=fixed;" parent="YspYGcWasc7SpstmC-S5-34" vertex="1">
          <mxGeometry x="72" y="40" width="40" height="40" as="geometry" />
        </mxCell>
        <mxCell id="YspYGcWasc7SpstmC-S5-37" value="&lt;font style=&quot;font-size: 16px;&quot;&gt;1&lt;/font&gt;" style="whiteSpace=wrap;html=1;aspect=fixed;fillColor=#e0e0e0;" parent="YspYGcWasc7SpstmC-S5-34" vertex="1">
          <mxGeometry x="112" y="40" width="40" height="40" as="geometry" />
        </mxCell>
        <mxCell id="YspYGcWasc7SpstmC-S5-38" value="&lt;font style=&quot;font-size: 16px;&quot;&gt;1&lt;/font&gt;" style="whiteSpace=wrap;html=1;aspect=fixed;fillColor=#e0e0e0;" parent="YspYGcWasc7SpstmC-S5-34" vertex="1">
          <mxGeometry x="152" y="40" width="40" height="40" as="geometry" />
        </mxCell>
        <mxCell id="YspYGcWasc7SpstmC-S5-39" value="&lt;font style=&quot;font-size: 16px;&quot;&gt;0&lt;/font&gt;" style="whiteSpace=wrap;html=1;aspect=fixed;" parent="YspYGcWasc7SpstmC-S5-34" vertex="1">
          <mxGeometry x="32" y="80" width="40" height="40" as="geometry" />
        </mxCell>
        <mxCell id="YspYGcWasc7SpstmC-S5-40" value="&lt;font style=&quot;font-size: 16px;&quot;&gt;0&lt;/font&gt;" style="whiteSpace=wrap;html=1;aspect=fixed;" parent="YspYGcWasc7SpstmC-S5-34" vertex="1">
          <mxGeometry x="72" y="80" width="40" height="40" as="geometry" />
        </mxCell>
        <mxCell id="YspYGcWasc7SpstmC-S5-41" value="&lt;font style=&quot;font-size: 16px;&quot;&gt;0&lt;/font&gt;" style="whiteSpace=wrap;html=1;aspect=fixed;fillColor=#e0e0e0;" parent="YspYGcWasc7SpstmC-S5-34" vertex="1">
          <mxGeometry x="112" y="80" width="40" height="40" as="geometry" />
        </mxCell>
        <mxCell id="YspYGcWasc7SpstmC-S5-42" value="&lt;font style=&quot;font-size: 16px;&quot;&gt;0&lt;/font&gt;" style="whiteSpace=wrap;html=1;aspect=fixed;fillColor=#e0e0e0;" parent="YspYGcWasc7SpstmC-S5-34" vertex="1">
          <mxGeometry x="152" y="80" width="40" height="40" as="geometry" />
        </mxCell>
        <mxCell id="YspYGcWasc7SpstmC-S5-43" value="" style="endArrow=none;html=1;rounded=0;" parent="YspYGcWasc7SpstmC-S5-34" edge="1">
          <mxGeometry width="50" height="50" relative="1" as="geometry">
            <mxPoint x="22" y="120" as="sourcePoint" />
            <mxPoint x="22" y="80" as="targetPoint" />
          </mxGeometry>
        </mxCell>
        <mxCell id="YspYGcWasc7SpstmC-S5-44" value="" style="endArrow=none;html=1;rounded=0;" parent="YspYGcWasc7SpstmC-S5-34" edge="1">
          <mxGeometry width="50" height="50" relative="1" as="geometry">
            <mxPoint x="112" y="30" as="sourcePoint" />
            <mxPoint x="192" y="30" as="targetPoint" />
          </mxGeometry>
        </mxCell>
        <mxCell id="YspYGcWasc7SpstmC-S5-45" value="" style="endArrow=none;html=1;rounded=0;" parent="YspYGcWasc7SpstmC-S5-34" edge="1">
          <mxGeometry width="50" height="50" relative="1" as="geometry">
            <mxPoint x="72" y="130" as="sourcePoint" />
            <mxPoint x="152" y="130" as="targetPoint" />
          </mxGeometry>
        </mxCell>
        <mxCell id="YspYGcWasc7SpstmC-S5-46" value="A" style="text;html=1;strokeColor=none;fillColor=none;align=center;verticalAlign=middle;whiteSpace=wrap;rounded=0;fontSize=16;" parent="YspYGcWasc7SpstmC-S5-34" vertex="1">
          <mxGeometry y="85" width="20" height="30" as="geometry" />
        </mxCell>
        <mxCell id="YspYGcWasc7SpstmC-S5-47" value="B" style="text;html=1;strokeColor=none;fillColor=none;align=center;verticalAlign=middle;whiteSpace=wrap;rounded=0;fontSize=16;" parent="YspYGcWasc7SpstmC-S5-34" vertex="1">
          <mxGeometry x="142" width="20" height="30" as="geometry" />
        </mxCell>
        <mxCell id="YspYGcWasc7SpstmC-S5-48" value="C" style="text;html=1;strokeColor=none;fillColor=none;align=center;verticalAlign=middle;whiteSpace=wrap;rounded=0;fontSize=16;" parent="YspYGcWasc7SpstmC-S5-34" vertex="1">
          <mxGeometry x="102" y="130" width="20" height="30" as="geometry" />
        </mxCell>
        <mxCell id="YspYGcWasc7SpstmC-S5-49" value="" style="group" parent="rlrm9YRFsJypaHiKC0p6-0" vertex="1" connectable="0">
          <mxGeometry x="480" width="192" height="160" as="geometry" />
        </mxCell>
        <mxCell id="YspYGcWasc7SpstmC-S5-50" value="&lt;font style=&quot;font-size: 16px;&quot;&gt;1&lt;/font&gt;" style="whiteSpace=wrap;html=1;aspect=fixed;" parent="YspYGcWasc7SpstmC-S5-49" vertex="1">
          <mxGeometry x="32" y="40" width="40" height="40" as="geometry" />
        </mxCell>
        <mxCell id="YspYGcWasc7SpstmC-S5-51" value="&lt;font style=&quot;font-size: 16px;&quot;&gt;1&lt;/font&gt;" style="whiteSpace=wrap;html=1;aspect=fixed;fillColor=#E0E0E0;" parent="YspYGcWasc7SpstmC-S5-49" vertex="1">
          <mxGeometry x="72" y="40" width="40" height="40" as="geometry" />
        </mxCell>
        <mxCell id="YspYGcWasc7SpstmC-S5-52" value="&lt;font style=&quot;font-size: 16px;&quot;&gt;1&lt;/font&gt;" style="whiteSpace=wrap;html=1;aspect=fixed;fillColor=#E0E0E0;" parent="YspYGcWasc7SpstmC-S5-49" vertex="1">
          <mxGeometry x="112" y="40" width="40" height="40" as="geometry" />
        </mxCell>
        <mxCell id="YspYGcWasc7SpstmC-S5-53" value="&lt;font style=&quot;font-size: 16px;&quot;&gt;1&lt;/font&gt;" style="whiteSpace=wrap;html=1;aspect=fixed;" parent="YspYGcWasc7SpstmC-S5-49" vertex="1">
          <mxGeometry x="152" y="40" width="40" height="40" as="geometry" />
        </mxCell>
        <mxCell id="YspYGcWasc7SpstmC-S5-54" value="&lt;font style=&quot;font-size: 16px;&quot;&gt;0&lt;/font&gt;" style="whiteSpace=wrap;html=1;aspect=fixed;" parent="YspYGcWasc7SpstmC-S5-49" vertex="1">
          <mxGeometry x="32" y="80" width="40" height="40" as="geometry" />
        </mxCell>
        <mxCell id="YspYGcWasc7SpstmC-S5-55" value="&lt;font style=&quot;font-size: 16px;&quot;&gt;0&lt;/font&gt;" style="whiteSpace=wrap;html=1;aspect=fixed;fillColor=#E0E0E0;" parent="YspYGcWasc7SpstmC-S5-49" vertex="1">
          <mxGeometry x="72" y="80" width="40" height="40" as="geometry" />
        </mxCell>
        <mxCell id="YspYGcWasc7SpstmC-S5-56" value="&lt;font style=&quot;font-size: 16px;&quot;&gt;0&lt;/font&gt;" style="whiteSpace=wrap;html=1;aspect=fixed;fillColor=#E0E0E0;" parent="YspYGcWasc7SpstmC-S5-49" vertex="1">
          <mxGeometry x="112" y="80" width="40" height="40" as="geometry" />
        </mxCell>
        <mxCell id="YspYGcWasc7SpstmC-S5-57" value="&lt;font style=&quot;font-size: 16px;&quot;&gt;0&lt;/font&gt;" style="whiteSpace=wrap;html=1;aspect=fixed;" parent="YspYGcWasc7SpstmC-S5-49" vertex="1">
          <mxGeometry x="152" y="80" width="40" height="40" as="geometry" />
        </mxCell>
        <mxCell id="YspYGcWasc7SpstmC-S5-58" value="" style="endArrow=none;html=1;rounded=0;" parent="YspYGcWasc7SpstmC-S5-49" edge="1">
          <mxGeometry width="50" height="50" relative="1" as="geometry">
            <mxPoint x="22" y="120" as="sourcePoint" />
            <mxPoint x="22" y="80" as="targetPoint" />
          </mxGeometry>
        </mxCell>
        <mxCell id="YspYGcWasc7SpstmC-S5-59" value="" style="endArrow=none;html=1;rounded=0;" parent="YspYGcWasc7SpstmC-S5-49" edge="1">
          <mxGeometry width="50" height="50" relative="1" as="geometry">
            <mxPoint x="112" y="30" as="sourcePoint" />
            <mxPoint x="192" y="30" as="targetPoint" />
          </mxGeometry>
        </mxCell>
        <mxCell id="YspYGcWasc7SpstmC-S5-60" value="" style="endArrow=none;html=1;rounded=0;" parent="YspYGcWasc7SpstmC-S5-49" edge="1">
          <mxGeometry width="50" height="50" relative="1" as="geometry">
            <mxPoint x="72" y="130" as="sourcePoint" />
            <mxPoint x="152" y="130" as="targetPoint" />
          </mxGeometry>
        </mxCell>
        <mxCell id="YspYGcWasc7SpstmC-S5-61" value="A" style="text;html=1;strokeColor=none;fillColor=none;align=center;verticalAlign=middle;whiteSpace=wrap;rounded=0;fontSize=16;" parent="YspYGcWasc7SpstmC-S5-49" vertex="1">
          <mxGeometry y="85" width="20" height="30" as="geometry" />
        </mxCell>
        <mxCell id="YspYGcWasc7SpstmC-S5-62" value="B" style="text;html=1;strokeColor=none;fillColor=none;align=center;verticalAlign=middle;whiteSpace=wrap;rounded=0;fontSize=16;" parent="YspYGcWasc7SpstmC-S5-49" vertex="1">
          <mxGeometry x="142" width="20" height="30" as="geometry" />
        </mxCell>
        <mxCell id="YspYGcWasc7SpstmC-S5-63" value="C" style="text;html=1;strokeColor=none;fillColor=none;align=center;verticalAlign=middle;whiteSpace=wrap;rounded=0;fontSize=16;" parent="YspYGcWasc7SpstmC-S5-49" vertex="1">
          <mxGeometry x="102" y="130" width="20" height="30" as="geometry" />
        </mxCell>
        <mxCell id="YspYGcWasc7SpstmC-S5-74" value="" style="rounded=1;whiteSpace=wrap;html=1;fillColor=#fa6800;fontColor=#000000;strokeColor=#C73500;opacity=50;" parent="rlrm9YRFsJypaHiKC0p6-0" vertex="1">
          <mxGeometry x="37" y="45" width="150" height="30" as="geometry" />
        </mxCell>
        <mxCell id="YspYGcWasc7SpstmC-S5-75" value="" style="rounded=1;whiteSpace=wrap;html=1;fillColor=#fa6800;fontColor=#000000;strokeColor=#C73500;opacity=50;" parent="rlrm9YRFsJypaHiKC0p6-0" vertex="1">
          <mxGeometry x="277" y="45" width="150" height="30" as="geometry" />
        </mxCell>
        <mxCell id="YspYGcWasc7SpstmC-S5-76" value="" style="rounded=1;whiteSpace=wrap;html=1;fillColor=#fa6800;fontColor=#000000;strokeColor=#C73500;opacity=50;" parent="rlrm9YRFsJypaHiKC0p6-0" vertex="1">
          <mxGeometry x="517" y="45" width="150" height="30" as="geometry" />
        </mxCell>
        <mxCell id="rlrm9YRFsJypaHiKC0p6-1" value="" style="group" vertex="1" connectable="0" parent="waEW5tWvIozQSPhYbR8s-1">
          <mxGeometry x="88" y="600" width="677.92" height="160" as="geometry" />
        </mxCell>
        <mxCell id="waEW5tWvIozQSPhYbR8s-150" value="" style="group" parent="rlrm9YRFsJypaHiKC0p6-1" vertex="1" connectable="0">
          <mxGeometry width="192" height="160" as="geometry" />
        </mxCell>
        <mxCell id="waEW5tWvIozQSPhYbR8s-151" value="&lt;font style=&quot;font-size: 16px;&quot;&gt;0&lt;/font&gt;" style="whiteSpace=wrap;html=1;aspect=fixed;" parent="waEW5tWvIozQSPhYbR8s-150" vertex="1">
          <mxGeometry x="32" y="40" width="40" height="40" as="geometry" />
        </mxCell>
        <mxCell id="waEW5tWvIozQSPhYbR8s-152" value="&lt;font style=&quot;font-size: 16px;&quot;&gt;0&lt;/font&gt;" style="whiteSpace=wrap;html=1;aspect=fixed;" parent="waEW5tWvIozQSPhYbR8s-150" vertex="1">
          <mxGeometry x="72" y="40" width="40" height="40" as="geometry" />
        </mxCell>
        <mxCell id="waEW5tWvIozQSPhYbR8s-153" value="&lt;font style=&quot;font-size: 16px;&quot;&gt;0&lt;/font&gt;" style="whiteSpace=wrap;html=1;aspect=fixed;" parent="waEW5tWvIozQSPhYbR8s-150" vertex="1">
          <mxGeometry x="112" y="40" width="40" height="40" as="geometry" />
        </mxCell>
        <mxCell id="waEW5tWvIozQSPhYbR8s-154" value="&lt;font style=&quot;font-size: 16px;&quot;&gt;0&lt;/font&gt;" style="whiteSpace=wrap;html=1;aspect=fixed;" parent="waEW5tWvIozQSPhYbR8s-150" vertex="1">
          <mxGeometry x="152" y="40" width="40" height="40" as="geometry" />
        </mxCell>
        <mxCell id="waEW5tWvIozQSPhYbR8s-155" value="&lt;font style=&quot;font-size: 16px;&quot;&gt;1&lt;/font&gt;" style="whiteSpace=wrap;html=1;aspect=fixed;fillColor=#E0E0E0;" parent="waEW5tWvIozQSPhYbR8s-150" vertex="1">
          <mxGeometry x="32" y="80" width="40" height="40" as="geometry" />
        </mxCell>
        <mxCell id="waEW5tWvIozQSPhYbR8s-156" value="&lt;font style=&quot;font-size: 16px;&quot;&gt;0&lt;/font&gt;" style="whiteSpace=wrap;html=1;aspect=fixed;fillColor=#E0E0E0;" parent="waEW5tWvIozQSPhYbR8s-150" vertex="1">
          <mxGeometry x="72" y="80" width="40" height="40" as="geometry" />
        </mxCell>
        <mxCell id="waEW5tWvIozQSPhYbR8s-157" value="&lt;font style=&quot;font-size: 16px;&quot;&gt;0&lt;/font&gt;" style="whiteSpace=wrap;html=1;aspect=fixed;fillColor=#E0E0E0;" parent="waEW5tWvIozQSPhYbR8s-150" vertex="1">
          <mxGeometry x="112" y="80" width="40" height="40" as="geometry" />
        </mxCell>
        <mxCell id="waEW5tWvIozQSPhYbR8s-158" value="&lt;font style=&quot;font-size: 16px;&quot;&gt;1&lt;/font&gt;" style="whiteSpace=wrap;html=1;aspect=fixed;fillColor=#E0E0E0;" parent="waEW5tWvIozQSPhYbR8s-150" vertex="1">
          <mxGeometry x="152" y="80" width="40" height="40" as="geometry" />
        </mxCell>
        <mxCell id="waEW5tWvIozQSPhYbR8s-159" value="" style="endArrow=none;html=1;rounded=0;" parent="waEW5tWvIozQSPhYbR8s-150" edge="1">
          <mxGeometry width="50" height="50" relative="1" as="geometry">
            <mxPoint x="22" y="120" as="sourcePoint" />
            <mxPoint x="22" y="80" as="targetPoint" />
          </mxGeometry>
        </mxCell>
        <mxCell id="waEW5tWvIozQSPhYbR8s-160" value="" style="endArrow=none;html=1;rounded=0;" parent="waEW5tWvIozQSPhYbR8s-150" edge="1">
          <mxGeometry width="50" height="50" relative="1" as="geometry">
            <mxPoint x="112" y="30" as="sourcePoint" />
            <mxPoint x="192" y="30" as="targetPoint" />
          </mxGeometry>
        </mxCell>
        <mxCell id="waEW5tWvIozQSPhYbR8s-161" value="" style="endArrow=none;html=1;rounded=0;" parent="waEW5tWvIozQSPhYbR8s-150" edge="1">
          <mxGeometry width="50" height="50" relative="1" as="geometry">
            <mxPoint x="72" y="130" as="sourcePoint" />
            <mxPoint x="152" y="130" as="targetPoint" />
          </mxGeometry>
        </mxCell>
        <mxCell id="waEW5tWvIozQSPhYbR8s-162" value="A" style="text;html=1;strokeColor=none;fillColor=none;align=center;verticalAlign=middle;whiteSpace=wrap;rounded=0;fontSize=16;" parent="waEW5tWvIozQSPhYbR8s-150" vertex="1">
          <mxGeometry y="85" width="20" height="30" as="geometry" />
        </mxCell>
        <mxCell id="waEW5tWvIozQSPhYbR8s-163" value="B" style="text;html=1;strokeColor=none;fillColor=none;align=center;verticalAlign=middle;whiteSpace=wrap;rounded=0;fontSize=16;" parent="waEW5tWvIozQSPhYbR8s-150" vertex="1">
          <mxGeometry x="142" width="20" height="30" as="geometry" />
        </mxCell>
        <mxCell id="waEW5tWvIozQSPhYbR8s-164" value="C" style="text;html=1;strokeColor=none;fillColor=none;align=center;verticalAlign=middle;whiteSpace=wrap;rounded=0;fontSize=16;" parent="waEW5tWvIozQSPhYbR8s-150" vertex="1">
          <mxGeometry x="102" y="130" width="20" height="30" as="geometry" />
        </mxCell>
        <mxCell id="waEW5tWvIozQSPhYbR8s-165" value="" style="group" parent="rlrm9YRFsJypaHiKC0p6-1" vertex="1" connectable="0">
          <mxGeometry x="240" width="192" height="160" as="geometry" />
        </mxCell>
        <mxCell id="waEW5tWvIozQSPhYbR8s-166" value="&lt;font style=&quot;font-size: 16px;&quot;&gt;0&lt;/font&gt;" style="whiteSpace=wrap;html=1;aspect=fixed;" parent="waEW5tWvIozQSPhYbR8s-165" vertex="1">
          <mxGeometry x="32" y="40" width="40" height="40" as="geometry" />
        </mxCell>
        <mxCell id="waEW5tWvIozQSPhYbR8s-167" value="&lt;font style=&quot;font-size: 16px;&quot;&gt;0&lt;/font&gt;" style="whiteSpace=wrap;html=1;aspect=fixed;" parent="waEW5tWvIozQSPhYbR8s-165" vertex="1">
          <mxGeometry x="72" y="40" width="40" height="40" as="geometry" />
        </mxCell>
        <mxCell id="waEW5tWvIozQSPhYbR8s-168" value="&lt;font style=&quot;font-size: 16px;&quot;&gt;0&lt;/font&gt;" style="whiteSpace=wrap;html=1;aspect=fixed;fillColor=#e0e0e0;" parent="waEW5tWvIozQSPhYbR8s-165" vertex="1">
          <mxGeometry x="112" y="40" width="40" height="40" as="geometry" />
        </mxCell>
        <mxCell id="waEW5tWvIozQSPhYbR8s-169" value="&lt;font style=&quot;font-size: 16px;&quot;&gt;0&lt;/font&gt;" style="whiteSpace=wrap;html=1;aspect=fixed;fillColor=#e0e0e0;" parent="waEW5tWvIozQSPhYbR8s-165" vertex="1">
          <mxGeometry x="152" y="40" width="40" height="40" as="geometry" />
        </mxCell>
        <mxCell id="waEW5tWvIozQSPhYbR8s-170" value="&lt;font style=&quot;font-size: 16px;&quot;&gt;1&lt;/font&gt;" style="whiteSpace=wrap;html=1;aspect=fixed;" parent="waEW5tWvIozQSPhYbR8s-165" vertex="1">
          <mxGeometry x="32" y="80" width="40" height="40" as="geometry" />
        </mxCell>
        <mxCell id="waEW5tWvIozQSPhYbR8s-171" value="&lt;font style=&quot;font-size: 16px;&quot;&gt;0&lt;/font&gt;" style="whiteSpace=wrap;html=1;aspect=fixed;" parent="waEW5tWvIozQSPhYbR8s-165" vertex="1">
          <mxGeometry x="72" y="80" width="40" height="40" as="geometry" />
        </mxCell>
        <mxCell id="waEW5tWvIozQSPhYbR8s-172" value="&lt;font style=&quot;font-size: 16px;&quot;&gt;0&lt;/font&gt;" style="whiteSpace=wrap;html=1;aspect=fixed;fillColor=#e0e0e0;" parent="waEW5tWvIozQSPhYbR8s-165" vertex="1">
          <mxGeometry x="112" y="80" width="40" height="40" as="geometry" />
        </mxCell>
        <mxCell id="waEW5tWvIozQSPhYbR8s-173" value="&lt;font style=&quot;font-size: 16px;&quot;&gt;1&lt;/font&gt;" style="whiteSpace=wrap;html=1;aspect=fixed;fillColor=#e0e0e0;" parent="waEW5tWvIozQSPhYbR8s-165" vertex="1">
          <mxGeometry x="152" y="80" width="40" height="40" as="geometry" />
        </mxCell>
        <mxCell id="waEW5tWvIozQSPhYbR8s-174" value="" style="endArrow=none;html=1;rounded=0;" parent="waEW5tWvIozQSPhYbR8s-165" edge="1">
          <mxGeometry width="50" height="50" relative="1" as="geometry">
            <mxPoint x="22" y="120" as="sourcePoint" />
            <mxPoint x="22" y="80" as="targetPoint" />
          </mxGeometry>
        </mxCell>
        <mxCell id="waEW5tWvIozQSPhYbR8s-175" value="" style="endArrow=none;html=1;rounded=0;" parent="waEW5tWvIozQSPhYbR8s-165" edge="1">
          <mxGeometry width="50" height="50" relative="1" as="geometry">
            <mxPoint x="112" y="30" as="sourcePoint" />
            <mxPoint x="192" y="30" as="targetPoint" />
          </mxGeometry>
        </mxCell>
        <mxCell id="waEW5tWvIozQSPhYbR8s-176" value="" style="endArrow=none;html=1;rounded=0;" parent="waEW5tWvIozQSPhYbR8s-165" edge="1">
          <mxGeometry width="50" height="50" relative="1" as="geometry">
            <mxPoint x="72" y="130" as="sourcePoint" />
            <mxPoint x="152" y="130" as="targetPoint" />
          </mxGeometry>
        </mxCell>
        <mxCell id="waEW5tWvIozQSPhYbR8s-177" value="A" style="text;html=1;strokeColor=none;fillColor=none;align=center;verticalAlign=middle;whiteSpace=wrap;rounded=0;fontSize=16;" parent="waEW5tWvIozQSPhYbR8s-165" vertex="1">
          <mxGeometry y="85" width="20" height="30" as="geometry" />
        </mxCell>
        <mxCell id="waEW5tWvIozQSPhYbR8s-178" value="B" style="text;html=1;strokeColor=none;fillColor=none;align=center;verticalAlign=middle;whiteSpace=wrap;rounded=0;fontSize=16;" parent="waEW5tWvIozQSPhYbR8s-165" vertex="1">
          <mxGeometry x="142" width="20" height="30" as="geometry" />
        </mxCell>
        <mxCell id="waEW5tWvIozQSPhYbR8s-179" value="C" style="text;html=1;strokeColor=none;fillColor=none;align=center;verticalAlign=middle;whiteSpace=wrap;rounded=0;fontSize=16;" parent="waEW5tWvIozQSPhYbR8s-165" vertex="1">
          <mxGeometry x="102" y="130" width="20" height="30" as="geometry" />
        </mxCell>
        <mxCell id="waEW5tWvIozQSPhYbR8s-180" value="" style="group" parent="rlrm9YRFsJypaHiKC0p6-1" vertex="1" connectable="0">
          <mxGeometry x="480" width="192" height="160" as="geometry" />
        </mxCell>
        <mxCell id="waEW5tWvIozQSPhYbR8s-181" value="&lt;font style=&quot;font-size: 16px;&quot;&gt;0&lt;/font&gt;" style="whiteSpace=wrap;html=1;aspect=fixed;" parent="waEW5tWvIozQSPhYbR8s-180" vertex="1">
          <mxGeometry x="32" y="40" width="40" height="40" as="geometry" />
        </mxCell>
        <mxCell id="waEW5tWvIozQSPhYbR8s-182" value="&lt;font style=&quot;font-size: 16px;&quot;&gt;0&lt;/font&gt;" style="whiteSpace=wrap;html=1;aspect=fixed;fillColor=#E0E0E0;" parent="waEW5tWvIozQSPhYbR8s-180" vertex="1">
          <mxGeometry x="72" y="40" width="40" height="40" as="geometry" />
        </mxCell>
        <mxCell id="waEW5tWvIozQSPhYbR8s-183" value="&lt;font style=&quot;font-size: 16px;&quot;&gt;0&lt;/font&gt;" style="whiteSpace=wrap;html=1;aspect=fixed;fillColor=#E0E0E0;" parent="waEW5tWvIozQSPhYbR8s-180" vertex="1">
          <mxGeometry x="112" y="40" width="40" height="40" as="geometry" />
        </mxCell>
        <mxCell id="waEW5tWvIozQSPhYbR8s-184" value="&lt;font style=&quot;font-size: 16px;&quot;&gt;0&lt;/font&gt;" style="whiteSpace=wrap;html=1;aspect=fixed;" parent="waEW5tWvIozQSPhYbR8s-180" vertex="1">
          <mxGeometry x="152" y="40" width="40" height="40" as="geometry" />
        </mxCell>
        <mxCell id="waEW5tWvIozQSPhYbR8s-185" value="&lt;font style=&quot;font-size: 16px;&quot;&gt;1&lt;/font&gt;" style="whiteSpace=wrap;html=1;aspect=fixed;" parent="waEW5tWvIozQSPhYbR8s-180" vertex="1">
          <mxGeometry x="32" y="80" width="40" height="40" as="geometry" />
        </mxCell>
        <mxCell id="waEW5tWvIozQSPhYbR8s-186" value="&lt;font style=&quot;font-size: 16px;&quot;&gt;0&lt;/font&gt;" style="whiteSpace=wrap;html=1;aspect=fixed;fillColor=#E0E0E0;" parent="waEW5tWvIozQSPhYbR8s-180" vertex="1">
          <mxGeometry x="72" y="80" width="40" height="40" as="geometry" />
        </mxCell>
        <mxCell id="waEW5tWvIozQSPhYbR8s-187" value="&lt;font style=&quot;font-size: 16px;&quot;&gt;0&lt;/font&gt;" style="whiteSpace=wrap;html=1;aspect=fixed;fillColor=#E0E0E0;" parent="waEW5tWvIozQSPhYbR8s-180" vertex="1">
          <mxGeometry x="112" y="80" width="40" height="40" as="geometry" />
        </mxCell>
        <mxCell id="waEW5tWvIozQSPhYbR8s-188" value="&lt;font style=&quot;font-size: 16px;&quot;&gt;1&lt;/font&gt;" style="whiteSpace=wrap;html=1;aspect=fixed;" parent="waEW5tWvIozQSPhYbR8s-180" vertex="1">
          <mxGeometry x="152" y="80" width="40" height="40" as="geometry" />
        </mxCell>
        <mxCell id="waEW5tWvIozQSPhYbR8s-189" value="" style="endArrow=none;html=1;rounded=0;" parent="waEW5tWvIozQSPhYbR8s-180" edge="1">
          <mxGeometry width="50" height="50" relative="1" as="geometry">
            <mxPoint x="22" y="120" as="sourcePoint" />
            <mxPoint x="22" y="80" as="targetPoint" />
          </mxGeometry>
        </mxCell>
        <mxCell id="waEW5tWvIozQSPhYbR8s-190" value="" style="endArrow=none;html=1;rounded=0;" parent="waEW5tWvIozQSPhYbR8s-180" edge="1">
          <mxGeometry width="50" height="50" relative="1" as="geometry">
            <mxPoint x="112" y="30" as="sourcePoint" />
            <mxPoint x="192" y="30" as="targetPoint" />
          </mxGeometry>
        </mxCell>
        <mxCell id="waEW5tWvIozQSPhYbR8s-191" value="" style="endArrow=none;html=1;rounded=0;" parent="waEW5tWvIozQSPhYbR8s-180" edge="1">
          <mxGeometry width="50" height="50" relative="1" as="geometry">
            <mxPoint x="72" y="130" as="sourcePoint" />
            <mxPoint x="152" y="130" as="targetPoint" />
          </mxGeometry>
        </mxCell>
        <mxCell id="waEW5tWvIozQSPhYbR8s-192" value="A" style="text;html=1;strokeColor=none;fillColor=none;align=center;verticalAlign=middle;whiteSpace=wrap;rounded=0;fontSize=16;" parent="waEW5tWvIozQSPhYbR8s-180" vertex="1">
          <mxGeometry y="85" width="20" height="30" as="geometry" />
        </mxCell>
        <mxCell id="waEW5tWvIozQSPhYbR8s-193" value="B" style="text;html=1;strokeColor=none;fillColor=none;align=center;verticalAlign=middle;whiteSpace=wrap;rounded=0;fontSize=16;" parent="waEW5tWvIozQSPhYbR8s-180" vertex="1">
          <mxGeometry x="142" width="20" height="30" as="geometry" />
        </mxCell>
        <mxCell id="waEW5tWvIozQSPhYbR8s-194" value="C" style="text;html=1;strokeColor=none;fillColor=none;align=center;verticalAlign=middle;whiteSpace=wrap;rounded=0;fontSize=16;" parent="waEW5tWvIozQSPhYbR8s-180" vertex="1">
          <mxGeometry x="102" y="130" width="20" height="30" as="geometry" />
        </mxCell>
        <mxCell id="YspYGcWasc7SpstmC-S5-69" value="" style="shape=image;verticalLabelPosition=bottom;labelBackgroundColor=default;verticalAlign=top;aspect=fixed;imageAspect=0;image=data:image/svg+xml,PHN2ZyB4bWxucz0iaHR0cDovL3d3dy53My5vcmcvMjAwMC9zdmciIGlkPSJzdmc5NzgiIHZlcnNpb249IjEuMSIgdmlld0JveD0iMCAwIDE0LjU5ODU5MiAxMC44NDc5MTciIGhlaWdodD0iMTAuODQ3OTE3bW0iIHdpZHRoPSIxNC41OTg1OTJtbSI+JiN4YTsgIDxkZWZzIGlkPSJkZWZzOTcyIi8+JiN4YTsgICYjeGE7ICA8bWV0YWRhdGEgaWQ9Im1ldGFkYXRhOTc1Ij4mI3hhOyAgICAmI3hhOyAgICAgICYjeGE7ICAgICAgICBpbWFnZS9zdmcreG1sJiN4YTsgICAgICAgICYjeGE7ICAgICAgICAmI3hhOyAgICAgICYjeGE7ICAgICYjeGE7ICA8L21ldGFkYXRhPiYjeGE7ICA8ZyB0cmFuc2Zvcm09InRyYW5zbGF0ZSgtNzguNjc1ODE2LC0xNDMuNDA5MzMpIiBpZD0ibGF5ZXIxIj4mI3hhOyAgICA8cGF0aCBpZD0icmVjdDEwMCIgdHJhbnNmb3JtPSJzY2FsZSgwLjI2NDU4MzMzKSIgZD0ibSAzMDMuODU3NDIsNTQyLjUxOTUzIGMgLTMuMzI0LDAgLTYsMi42NzYgLTYsNiB2IDI4IGMgMCwzLjMyNCAyLjY3Niw2IDYsNiBoIDQ4LjE3NTc4IHYgLTQwIHoiIHN0eWxlPSJmaWxsOiNmYTY4MDA7ZmlsbC1vcGFjaXR5OjAuNTtzdHJva2U6I2M3MzUwMDtzdHJva2Utd2lkdGg6MC45OTk5OTk5NDtzdHJva2Utb3BhY2l0eTowLjUiLz4mI3hhOyAgPC9nPiYjeGE7PC9zdmc+;flipH=1;" parent="rlrm9YRFsJypaHiKC0p6-1" vertex="1">
          <mxGeometry x="27" y="85" width="40.92" height="30" as="geometry" />
        </mxCell>
        <mxCell id="YspYGcWasc7SpstmC-S5-64" value="" style="shape=image;verticalLabelPosition=bottom;labelBackgroundColor=default;verticalAlign=top;aspect=fixed;imageAspect=0;image=data:image/svg+xml,PHN2ZyB4bWxucz0iaHR0cDovL3d3dy53My5vcmcvMjAwMC9zdmciIGlkPSJzdmc5NzgiIHZlcnNpb249IjEuMSIgdmlld0JveD0iMCAwIDE0LjU5ODU5MiAxMC44NDc5MTciIGhlaWdodD0iMTAuODQ3OTE3bW0iIHdpZHRoPSIxNC41OTg1OTJtbSI+JiN4YTsgIDxkZWZzIGlkPSJkZWZzOTcyIi8+JiN4YTsgICYjeGE7ICA8bWV0YWRhdGEgaWQ9Im1ldGFkYXRhOTc1Ij4mI3hhOyAgICAmI3hhOyAgICAgICYjeGE7ICAgICAgICBpbWFnZS9zdmcreG1sJiN4YTsgICAgICAgICYjeGE7ICAgICAgICAmI3hhOyAgICAgICYjeGE7ICAgICYjeGE7ICA8L21ldGFkYXRhPiYjeGE7ICA8ZyB0cmFuc2Zvcm09InRyYW5zbGF0ZSgtNzguNjc1ODE2LC0xNDMuNDA5MzMpIiBpZD0ibGF5ZXIxIj4mI3hhOyAgICA8cGF0aCBpZD0icmVjdDEwMCIgdHJhbnNmb3JtPSJzY2FsZSgwLjI2NDU4MzMzKSIgZD0ibSAzMDMuODU3NDIsNTQyLjUxOTUzIGMgLTMuMzI0LDAgLTYsMi42NzYgLTYsNiB2IDI4IGMgMCwzLjMyNCAyLjY3Niw2IDYsNiBoIDQ4LjE3NTc4IHYgLTQwIHoiIHN0eWxlPSJmaWxsOiNmYTY4MDA7ZmlsbC1vcGFjaXR5OjAuNTtzdHJva2U6I2M3MzUwMDtzdHJva2Utd2lkdGg6MC45OTk5OTk5NDtzdHJva2Utb3BhY2l0eTowLjUiLz4mI3hhOyAgPC9nPiYjeGE7PC9zdmc+;" parent="rlrm9YRFsJypaHiKC0p6-1" vertex="1">
          <mxGeometry x="157" y="85" width="40.92" height="30" as="geometry" />
        </mxCell>
        <mxCell id="YspYGcWasc7SpstmC-S5-68" value="" style="shape=image;verticalLabelPosition=bottom;labelBackgroundColor=default;verticalAlign=top;aspect=fixed;imageAspect=0;image=data:image/svg+xml,PHN2ZyB4bWxucz0iaHR0cDovL3d3dy53My5vcmcvMjAwMC9zdmciIGlkPSJzdmc5NzgiIHZlcnNpb249IjEuMSIgdmlld0JveD0iMCAwIDE0LjU5ODU5MiAxMC44NDc5MTciIGhlaWdodD0iMTAuODQ3OTE3bW0iIHdpZHRoPSIxNC41OTg1OTJtbSI+JiN4YTsgIDxkZWZzIGlkPSJkZWZzOTcyIi8+JiN4YTsgICYjeGE7ICA8bWV0YWRhdGEgaWQ9Im1ldGFkYXRhOTc1Ij4mI3hhOyAgICAmI3hhOyAgICAgICYjeGE7ICAgICAgICBpbWFnZS9zdmcreG1sJiN4YTsgICAgICAgICYjeGE7ICAgICAgICAmI3hhOyAgICAgICYjeGE7ICAgICYjeGE7ICA8L21ldGFkYXRhPiYjeGE7ICA8ZyB0cmFuc2Zvcm09InRyYW5zbGF0ZSgtNzguNjc1ODE2LC0xNDMuNDA5MzMpIiBpZD0ibGF5ZXIxIj4mI3hhOyAgICA8cGF0aCBpZD0icmVjdDEwMCIgdHJhbnNmb3JtPSJzY2FsZSgwLjI2NDU4MzMzKSIgZD0ibSAzMDMuODU3NDIsNTQyLjUxOTUzIGMgLTMuMzI0LDAgLTYsMi42NzYgLTYsNiB2IDI4IGMgMCwzLjMyNCAyLjY3Niw2IDYsNiBoIDQ4LjE3NTc4IHYgLTQwIHoiIHN0eWxlPSJmaWxsOiNmYTY4MDA7ZmlsbC1vcGFjaXR5OjAuNTtzdHJva2U6I2M3MzUwMDtzdHJva2Utd2lkdGg6MC45OTk5OTk5NDtzdHJva2Utb3BhY2l0eTowLjUiLz4mI3hhOyAgPC9nPiYjeGE7PC9zdmc+;flipH=1;" parent="rlrm9YRFsJypaHiKC0p6-1" vertex="1">
          <mxGeometry x="267" y="85" width="40.92" height="30" as="geometry" />
        </mxCell>
        <mxCell id="YspYGcWasc7SpstmC-S5-65" value="" style="shape=image;verticalLabelPosition=bottom;labelBackgroundColor=default;verticalAlign=top;aspect=fixed;imageAspect=0;image=data:image/svg+xml,PHN2ZyB4bWxucz0iaHR0cDovL3d3dy53My5vcmcvMjAwMC9zdmciIGlkPSJzdmc5NzgiIHZlcnNpb249IjEuMSIgdmlld0JveD0iMCAwIDE0LjU5ODU5MiAxMC44NDc5MTciIGhlaWdodD0iMTAuODQ3OTE3bW0iIHdpZHRoPSIxNC41OTg1OTJtbSI+JiN4YTsgIDxkZWZzIGlkPSJkZWZzOTcyIi8+JiN4YTsgICYjeGE7ICA8bWV0YWRhdGEgaWQ9Im1ldGFkYXRhOTc1Ij4mI3hhOyAgICAmI3hhOyAgICAgICYjeGE7ICAgICAgICBpbWFnZS9zdmcreG1sJiN4YTsgICAgICAgICYjeGE7ICAgICAgICAmI3hhOyAgICAgICYjeGE7ICAgICYjeGE7ICA8L21ldGFkYXRhPiYjeGE7ICA8ZyB0cmFuc2Zvcm09InRyYW5zbGF0ZSgtNzguNjc1ODE2LC0xNDMuNDA5MzMpIiBpZD0ibGF5ZXIxIj4mI3hhOyAgICA8cGF0aCBpZD0icmVjdDEwMCIgdHJhbnNmb3JtPSJzY2FsZSgwLjI2NDU4MzMzKSIgZD0ibSAzMDMuODU3NDIsNTQyLjUxOTUzIGMgLTMuMzI0LDAgLTYsMi42NzYgLTYsNiB2IDI4IGMgMCwzLjMyNCAyLjY3Niw2IDYsNiBoIDQ4LjE3NTc4IHYgLTQwIHoiIHN0eWxlPSJmaWxsOiNmYTY4MDA7ZmlsbC1vcGFjaXR5OjAuNTtzdHJva2U6I2M3MzUwMDtzdHJva2Utd2lkdGg6MC45OTk5OTk5NDtzdHJva2Utb3BhY2l0eTowLjUiLz4mI3hhOyAgPC9nPiYjeGE7PC9zdmc+;" parent="rlrm9YRFsJypaHiKC0p6-1" vertex="1">
          <mxGeometry x="397" y="85" width="40.92" height="30" as="geometry" />
        </mxCell>
        <mxCell id="YspYGcWasc7SpstmC-S5-67" value="" style="shape=image;verticalLabelPosition=bottom;labelBackgroundColor=default;verticalAlign=top;aspect=fixed;imageAspect=0;image=data:image/svg+xml,PHN2ZyB4bWxucz0iaHR0cDovL3d3dy53My5vcmcvMjAwMC9zdmciIGlkPSJzdmc5NzgiIHZlcnNpb249IjEuMSIgdmlld0JveD0iMCAwIDE0LjU5ODU5MiAxMC44NDc5MTciIGhlaWdodD0iMTAuODQ3OTE3bW0iIHdpZHRoPSIxNC41OTg1OTJtbSI+JiN4YTsgIDxkZWZzIGlkPSJkZWZzOTcyIi8+JiN4YTsgICYjeGE7ICA8bWV0YWRhdGEgaWQ9Im1ldGFkYXRhOTc1Ij4mI3hhOyAgICAmI3hhOyAgICAgICYjeGE7ICAgICAgICBpbWFnZS9zdmcreG1sJiN4YTsgICAgICAgICYjeGE7ICAgICAgICAmI3hhOyAgICAgICYjeGE7ICAgICYjeGE7ICA8L21ldGFkYXRhPiYjeGE7ICA8ZyB0cmFuc2Zvcm09InRyYW5zbGF0ZSgtNzguNjc1ODE2LC0xNDMuNDA5MzMpIiBpZD0ibGF5ZXIxIj4mI3hhOyAgICA8cGF0aCBpZD0icmVjdDEwMCIgdHJhbnNmb3JtPSJzY2FsZSgwLjI2NDU4MzMzKSIgZD0ibSAzMDMuODU3NDIsNTQyLjUxOTUzIGMgLTMuMzI0LDAgLTYsMi42NzYgLTYsNiB2IDI4IGMgMCwzLjMyNCAyLjY3Niw2IDYsNiBoIDQ4LjE3NTc4IHYgLTQwIHoiIHN0eWxlPSJmaWxsOiNmYTY4MDA7ZmlsbC1vcGFjaXR5OjAuNTtzdHJva2U6I2M3MzUwMDtzdHJva2Utd2lkdGg6MC45OTk5OTk5NDtzdHJva2Utb3BhY2l0eTowLjUiLz4mI3hhOyAgPC9nPiYjeGE7PC9zdmc+;flipH=1;" parent="rlrm9YRFsJypaHiKC0p6-1" vertex="1">
          <mxGeometry x="507" y="85" width="40.92" height="30" as="geometry" />
        </mxCell>
        <mxCell id="YspYGcWasc7SpstmC-S5-66" value="" style="shape=image;verticalLabelPosition=bottom;labelBackgroundColor=default;verticalAlign=top;aspect=fixed;imageAspect=0;image=data:image/svg+xml,PHN2ZyB4bWxucz0iaHR0cDovL3d3dy53My5vcmcvMjAwMC9zdmciIGlkPSJzdmc5NzgiIHZlcnNpb249IjEuMSIgdmlld0JveD0iMCAwIDE0LjU5ODU5MiAxMC44NDc5MTciIGhlaWdodD0iMTAuODQ3OTE3bW0iIHdpZHRoPSIxNC41OTg1OTJtbSI+JiN4YTsgIDxkZWZzIGlkPSJkZWZzOTcyIi8+JiN4YTsgICYjeGE7ICA8bWV0YWRhdGEgaWQ9Im1ldGFkYXRhOTc1Ij4mI3hhOyAgICAmI3hhOyAgICAgICYjeGE7ICAgICAgICBpbWFnZS9zdmcreG1sJiN4YTsgICAgICAgICYjeGE7ICAgICAgICAmI3hhOyAgICAgICYjeGE7ICAgICYjeGE7ICA8L21ldGFkYXRhPiYjeGE7ICA8ZyB0cmFuc2Zvcm09InRyYW5zbGF0ZSgtNzguNjc1ODE2LC0xNDMuNDA5MzMpIiBpZD0ibGF5ZXIxIj4mI3hhOyAgICA8cGF0aCBpZD0icmVjdDEwMCIgdHJhbnNmb3JtPSJzY2FsZSgwLjI2NDU4MzMzKSIgZD0ibSAzMDMuODU3NDIsNTQyLjUxOTUzIGMgLTMuMzI0LDAgLTYsMi42NzYgLTYsNiB2IDI4IGMgMCwzLjMyNCAyLjY3Niw2IDYsNiBoIDQ4LjE3NTc4IHYgLTQwIHoiIHN0eWxlPSJmaWxsOiNmYTY4MDA7ZmlsbC1vcGFjaXR5OjAuNTtzdHJva2U6I2M3MzUwMDtzdHJva2Utd2lkdGg6MC45OTk5OTk5NDtzdHJva2Utb3BhY2l0eTowLjUiLz4mI3hhOyAgPC9nPiYjeGE7PC9zdmc+;" parent="rlrm9YRFsJypaHiKC0p6-1" vertex="1">
          <mxGeometry x="637" y="85" width="40.92" height="30" as="geometry" />
        </mxCell>
      </root>
    </mxGraphModel>
  </diagram>
  <diagram name="Page2" id="hK436B7E5r_8D7uP2dJ4">
    <mxGraphModel dx="1050" dy="530" grid="1" gridSize="10" guides="1" tooltips="1" connect="1" arrows="1" fold="1" page="1" pageScale="1" pageWidth="827" pageHeight="1169" math="0" shadow="0">
      <root>
        <mxCell id="rADEs_3C0373_7XRpB---0" />
        <mxCell id="rADEs_3C0373_7XRpB---1" parent="rADEs_3C0373_7XRpB---0" />
        <mxCell id="2aNpIFmSgTMSh7Xv1_dq-9" value="" style="group" parent="rADEs_3C0373_7XRpB---1" vertex="1" connectable="0">
          <mxGeometry x="80" y="672" width="300" height="316" as="geometry" />
        </mxCell>
        <mxCell id="2aNpIFmSgTMSh7Xv1_dq-5" value="" style="group" parent="2aNpIFmSgTMSh7Xv1_dq-9" vertex="1" connectable="0">
          <mxGeometry width="300" height="316" as="geometry" />
        </mxCell>
        <mxCell id="6qeitvOZvcUT2dIW3SHl-12" value="&lt;span style=&quot;font-size: 16px;&quot;&gt;1&lt;/span&gt;" style="whiteSpace=wrap;html=1;aspect=fixed;" parent="2aNpIFmSgTMSh7Xv1_dq-5" vertex="1">
          <mxGeometry x="30" y="38" width="60" height="60" as="geometry" />
        </mxCell>
        <mxCell id="6qeitvOZvcUT2dIW3SHl-13" value="&lt;span style=&quot;font-size: 16px;&quot;&gt;&lt;font face=&quot;Helvetica&quot;&gt;0&lt;/font&gt;&lt;/span&gt;" style="whiteSpace=wrap;html=1;aspect=fixed;" parent="2aNpIFmSgTMSh7Xv1_dq-5" vertex="1">
          <mxGeometry x="90" y="38" width="60" height="60" as="geometry" />
        </mxCell>
        <mxCell id="6qeitvOZvcUT2dIW3SHl-14" value="&lt;span style=&quot;font-size: 16px;&quot;&gt;&lt;font face=&quot;Helvetica&quot;&gt;1&lt;/font&gt;&lt;/span&gt;" style="whiteSpace=wrap;html=1;aspect=fixed;" parent="2aNpIFmSgTMSh7Xv1_dq-5" vertex="1">
          <mxGeometry x="210" y="38" width="60" height="60" as="geometry" />
        </mxCell>
        <mxCell id="6qeitvOZvcUT2dIW3SHl-15" value="&lt;span style=&quot;font-size: 16px;&quot;&gt;&lt;font face=&quot;Helvetica&quot;&gt;0&lt;/font&gt;&lt;/span&gt;" style="whiteSpace=wrap;html=1;aspect=fixed;" parent="2aNpIFmSgTMSh7Xv1_dq-5" vertex="1">
          <mxGeometry x="150" y="38" width="60" height="60" as="geometry" />
        </mxCell>
        <mxCell id="6qeitvOZvcUT2dIW3SHl-16" value="&lt;span style=&quot;font-size: 16px;&quot;&gt;&lt;font style=&quot;&quot; face=&quot;Helvetica&quot;&gt;1&lt;/font&gt;&lt;/span&gt;" style="whiteSpace=wrap;html=1;aspect=fixed;" parent="2aNpIFmSgTMSh7Xv1_dq-5" vertex="1">
          <mxGeometry x="30" y="98" width="60" height="60" as="geometry" />
        </mxCell>
        <mxCell id="6qeitvOZvcUT2dIW3SHl-17" value="&lt;span style=&quot;font-size: 16px;&quot;&gt;&lt;font face=&quot;Helvetica&quot;&gt;1&lt;/font&gt;&lt;/span&gt;" style="whiteSpace=wrap;html=1;aspect=fixed;" parent="2aNpIFmSgTMSh7Xv1_dq-5" vertex="1">
          <mxGeometry x="90" y="98" width="60" height="60" as="geometry" />
        </mxCell>
        <mxCell id="6qeitvOZvcUT2dIW3SHl-18" value="&lt;span style=&quot;font-size: 16px;&quot;&gt;&lt;font face=&quot;Helvetica&quot;&gt;0&lt;/font&gt;&lt;/span&gt;" style="whiteSpace=wrap;html=1;aspect=fixed;" parent="2aNpIFmSgTMSh7Xv1_dq-5" vertex="1">
          <mxGeometry x="210" y="98" width="60" height="60" as="geometry" />
        </mxCell>
        <mxCell id="6qeitvOZvcUT2dIW3SHl-19" value="&lt;span style=&quot;font-size: 16px;&quot;&gt;&lt;font face=&quot;Helvetica&quot;&gt;0&lt;/font&gt;&lt;/span&gt;" style="whiteSpace=wrap;html=1;aspect=fixed;" parent="2aNpIFmSgTMSh7Xv1_dq-5" vertex="1">
          <mxGeometry x="150" y="98" width="60" height="60" as="geometry" />
        </mxCell>
        <mxCell id="6qeitvOZvcUT2dIW3SHl-20" value="" style="endArrow=none;html=1;rounded=0;" parent="2aNpIFmSgTMSh7Xv1_dq-5" edge="1">
          <mxGeometry width="50" height="50" relative="1" as="geometry">
            <mxPoint x="20" y="278" as="sourcePoint" />
            <mxPoint x="20" y="158" as="targetPoint" />
          </mxGeometry>
        </mxCell>
        <mxCell id="6qeitvOZvcUT2dIW3SHl-21" value="A" style="text;html=1;strokeColor=none;fillColor=none;align=center;verticalAlign=middle;whiteSpace=wrap;rounded=0;fontSize=16;" parent="2aNpIFmSgTMSh7Xv1_dq-5" vertex="1">
          <mxGeometry y="203" width="20" height="30" as="geometry" />
        </mxCell>
        <mxCell id="6qeitvOZvcUT2dIW3SHl-22" value="" style="endArrow=none;html=1;rounded=0;" parent="2aNpIFmSgTMSh7Xv1_dq-5" edge="1">
          <mxGeometry width="50" height="50" relative="1" as="geometry">
            <mxPoint x="270" y="28" as="sourcePoint" />
            <mxPoint x="150" y="28" as="targetPoint" />
          </mxGeometry>
        </mxCell>
        <mxCell id="6qeitvOZvcUT2dIW3SHl-23" value="" style="endArrow=none;html=1;rounded=0;" parent="2aNpIFmSgTMSh7Xv1_dq-5" edge="1">
          <mxGeometry width="50" height="50" relative="1" as="geometry">
            <mxPoint x="210" y="288" as="sourcePoint" />
            <mxPoint x="90" y="288" as="targetPoint" />
          </mxGeometry>
        </mxCell>
        <mxCell id="6qeitvOZvcUT2dIW3SHl-24" value="C" style="text;html=1;strokeColor=none;fillColor=none;align=center;verticalAlign=middle;whiteSpace=wrap;rounded=0;fontSize=16;" parent="2aNpIFmSgTMSh7Xv1_dq-5" vertex="1">
          <mxGeometry x="200" width="20" height="30" as="geometry" />
        </mxCell>
        <mxCell id="6qeitvOZvcUT2dIW3SHl-25" value="D" style="text;html=1;strokeColor=none;fillColor=none;align=center;verticalAlign=middle;whiteSpace=wrap;rounded=0;fontSize=16;" parent="2aNpIFmSgTMSh7Xv1_dq-5" vertex="1">
          <mxGeometry x="140" y="286" width="20" height="30" as="geometry" />
        </mxCell>
        <mxCell id="6qeitvOZvcUT2dIW3SHl-98" value="&lt;span style=&quot;font-size: 16px;&quot;&gt;1&lt;/span&gt;" style="whiteSpace=wrap;html=1;aspect=fixed;" parent="2aNpIFmSgTMSh7Xv1_dq-5" vertex="1">
          <mxGeometry x="30" y="158" width="60" height="60" as="geometry" />
        </mxCell>
        <mxCell id="6qeitvOZvcUT2dIW3SHl-99" value="&lt;span style=&quot;font-size: 16px;&quot;&gt;&lt;font face=&quot;Helvetica&quot;&gt;1&lt;/font&gt;&lt;/span&gt;" style="whiteSpace=wrap;html=1;aspect=fixed;" parent="2aNpIFmSgTMSh7Xv1_dq-5" vertex="1">
          <mxGeometry x="90" y="158" width="60" height="60" as="geometry" />
        </mxCell>
        <mxCell id="6qeitvOZvcUT2dIW3SHl-100" value="&lt;span style=&quot;font-size: 16px;&quot;&gt;&lt;font face=&quot;Helvetica&quot;&gt;0&lt;/font&gt;&lt;/span&gt;" style="whiteSpace=wrap;html=1;aspect=fixed;" parent="2aNpIFmSgTMSh7Xv1_dq-5" vertex="1">
          <mxGeometry x="210" y="158" width="60" height="60" as="geometry" />
        </mxCell>
        <mxCell id="6qeitvOZvcUT2dIW3SHl-101" value="&lt;span style=&quot;font-size: 16px;&quot;&gt;&lt;font face=&quot;Helvetica&quot;&gt;0&lt;/font&gt;&lt;/span&gt;" style="whiteSpace=wrap;html=1;aspect=fixed;" parent="2aNpIFmSgTMSh7Xv1_dq-5" vertex="1">
          <mxGeometry x="150" y="158" width="60" height="60" as="geometry" />
        </mxCell>
        <mxCell id="6qeitvOZvcUT2dIW3SHl-102" value="&lt;span style=&quot;font-size: 16px;&quot;&gt;&lt;font style=&quot;&quot; face=&quot;Helvetica&quot;&gt;1&lt;/font&gt;&lt;/span&gt;" style="whiteSpace=wrap;html=1;aspect=fixed;" parent="2aNpIFmSgTMSh7Xv1_dq-5" vertex="1">
          <mxGeometry x="30" y="218" width="60" height="60" as="geometry" />
        </mxCell>
        <mxCell id="6qeitvOZvcUT2dIW3SHl-103" value="&lt;span style=&quot;font-size: 16px;&quot;&gt;&lt;font face=&quot;Helvetica&quot;&gt;0&lt;/font&gt;&lt;/span&gt;" style="whiteSpace=wrap;html=1;aspect=fixed;" parent="2aNpIFmSgTMSh7Xv1_dq-5" vertex="1">
          <mxGeometry x="90" y="218" width="60" height="60" as="geometry" />
        </mxCell>
        <mxCell id="6qeitvOZvcUT2dIW3SHl-104" value="&lt;span style=&quot;font-size: 16px;&quot;&gt;&lt;font face=&quot;Helvetica&quot;&gt;1&lt;/font&gt;&lt;/span&gt;" style="whiteSpace=wrap;html=1;aspect=fixed;" parent="2aNpIFmSgTMSh7Xv1_dq-5" vertex="1">
          <mxGeometry x="210" y="218" width="60" height="60" as="geometry" />
        </mxCell>
        <mxCell id="6qeitvOZvcUT2dIW3SHl-105" value="&lt;span style=&quot;font-size: 16px;&quot;&gt;&lt;font face=&quot;Helvetica&quot;&gt;0&lt;/font&gt;&lt;/span&gt;" style="whiteSpace=wrap;html=1;aspect=fixed;" parent="2aNpIFmSgTMSh7Xv1_dq-5" vertex="1">
          <mxGeometry x="150" y="218" width="60" height="60" as="geometry" />
        </mxCell>
        <mxCell id="6qeitvOZvcUT2dIW3SHl-106" value="" style="endArrow=none;html=1;rounded=0;" parent="2aNpIFmSgTMSh7Xv1_dq-5" edge="1">
          <mxGeometry width="50" height="50" relative="1" as="geometry">
            <mxPoint x="280" y="218" as="sourcePoint" />
            <mxPoint x="280" y="98" as="targetPoint" />
          </mxGeometry>
        </mxCell>
        <mxCell id="6qeitvOZvcUT2dIW3SHl-107" value="B" style="text;html=1;strokeColor=none;fillColor=none;align=center;verticalAlign=middle;whiteSpace=wrap;rounded=0;fontSize=16;" parent="2aNpIFmSgTMSh7Xv1_dq-5" vertex="1">
          <mxGeometry x="280" y="143" width="20" height="30" as="geometry" />
        </mxCell>
        <mxCell id="2aNpIFmSgTMSh7Xv1_dq-35" value="" style="rounded=1;whiteSpace=wrap;html=1;arcSize=8;fillColor=#d80073;fontColor=#ffffff;strokeColor=#A50040;opacity=50;" parent="2aNpIFmSgTMSh7Xv1_dq-5" vertex="1">
          <mxGeometry x="40" y="108" width="100" height="102" as="geometry" />
        </mxCell>
        <mxCell id="2aNpIFmSgTMSh7Xv1_dq-0" value="" style="shape=image;verticalLabelPosition=bottom;labelBackgroundColor=default;verticalAlign=top;aspect=fixed;imageAspect=0;image=data:image/svg+xml,PHN2ZyB4bWxucz0iaHR0cDovL3d3dy53My5vcmcvMjAwMC9zdmciIGlkPSJzdmcxNjA5IiB2ZXJzaW9uPSIxLjEiIHZpZXdCb3g9IjAgMCAxNC43MjY3NDkgMTQuNzI2NzM0IiBoZWlnaHQ9IjE0LjcyNjczNG1tIiB3aWR0aD0iMTQuNzI2NzQ5bW0iPiYjeGE7ICA8ZGVmcyBpZD0iZGVmczE2MDMiLz4mI3hhOyAgJiN4YTsgICAgJiN4YTsgICAgJiN4YTsgICYjeGE7ICA8bWV0YWRhdGEgaWQ9Im1ldGFkYXRhMTYwNiI+JiN4YTsgICAgJiN4YTsgICAgICAmI3hhOyAgICAgICAgaW1hZ2Uvc3ZnK3htbCYjeGE7ICAgICAgICAmI3hhOyAgICAgICAgJiN4YTsgICAgICAmI3hhOyAgICAmI3hhOyAgPC9tZXRhZGF0YT4mI3hhOyAgPGcgdHJhbnNmb3JtPSJ0cmFuc2xhdGUoMCwtMjgyLjI3MzIxKSIgaWQ9ImxheWVyMSI+JiN4YTsgICAgPHBhdGggaWQ9InJlY3QyMTY4IiB0cmFuc2Zvcm09InNjYWxlKDAuMjY0NTgzMzMpIiBkPSJtIDAuNSwxMDY3LjM1OTQgdiA0Ni45NjA5IGMgMCw0LjI2NTggMy40MzM0MTksNy42OTkyIDcuNjk5MjE4OCw3LjY5OTIgSCA1NS4xNjAxNTYgdiAtNTQuNjYwMSB6IiBzdHlsZT0iZmlsbDojZmE2ODAwO2ZpbGwtb3BhY2l0eTowLjU7c3Ryb2tlOiNjNzM1MDA7c3Ryb2tlLXdpZHRoOjAuOTk5OTk5OTQ7c3Ryb2tlLW9wYWNpdHk6MC41Ii8+JiN4YTsgIDwvZz4mI3hhOzwvc3ZnPg==;" parent="2aNpIFmSgTMSh7Xv1_dq-9" vertex="1">
          <mxGeometry x="221" y="33" width="55" height="55" as="geometry" />
        </mxCell>
        <mxCell id="2aNpIFmSgTMSh7Xv1_dq-6" value="" style="shape=image;verticalLabelPosition=bottom;labelBackgroundColor=default;verticalAlign=top;aspect=fixed;imageAspect=0;image=data:image/svg+xml,PHN2ZyB4bWxucz0iaHR0cDovL3d3dy53My5vcmcvMjAwMC9zdmciIGlkPSJzdmcxNjA5IiB2ZXJzaW9uPSIxLjEiIHZpZXdCb3g9IjAgMCAxNC43MjY3NDkgMTQuNzI2NzM0IiBoZWlnaHQ9IjE0LjcyNjczNG1tIiB3aWR0aD0iMTQuNzI2NzQ5bW0iPiYjeGE7ICA8ZGVmcyBpZD0iZGVmczE2MDMiLz4mI3hhOyAgJiN4YTsgICAgJiN4YTsgICAgJiN4YTsgICYjeGE7ICA8bWV0YWRhdGEgaWQ9Im1ldGFkYXRhMTYwNiI+JiN4YTsgICAgJiN4YTsgICAgICAmI3hhOyAgICAgICAgaW1hZ2Uvc3ZnK3htbCYjeGE7ICAgICAgICAmI3hhOyAgICAgICAgJiN4YTsgICAgICAmI3hhOyAgICAmI3hhOyAgPC9tZXRhZGF0YT4mI3hhOyAgPGcgdHJhbnNmb3JtPSJ0cmFuc2xhdGUoMCwtMjgyLjI3MzIxKSIgaWQ9ImxheWVyMSI+JiN4YTsgICAgPHBhdGggaWQ9InJlY3QyMTY4IiB0cmFuc2Zvcm09InNjYWxlKDAuMjY0NTgzMzMpIiBkPSJtIDAuNSwxMDY3LjM1OTQgdiA0Ni45NjA5IGMgMCw0LjI2NTggMy40MzM0MTksNy42OTkyIDcuNjk5MjE4OCw3LjY5OTIgSCA1NS4xNjAxNTYgdiAtNTQuNjYwMSB6IiBzdHlsZT0iZmlsbDojZmE2ODAwO2ZpbGwtb3BhY2l0eTowLjU7c3Ryb2tlOiNjNzM1MDA7c3Ryb2tlLXdpZHRoOjAuOTk5OTk5OTQ7c3Ryb2tlLW9wYWNpdHk6MC41Ii8+JiN4YTsgIDwvZz4mI3hhOzwvc3ZnPg==;flipH=1;" parent="2aNpIFmSgTMSh7Xv1_dq-9" vertex="1">
          <mxGeometry x="25" y="33" width="55" height="55" as="geometry" />
        </mxCell>
        <mxCell id="2aNpIFmSgTMSh7Xv1_dq-7" value="" style="shape=image;verticalLabelPosition=bottom;labelBackgroundColor=default;verticalAlign=top;aspect=fixed;imageAspect=0;image=data:image/svg+xml,PHN2ZyB4bWxucz0iaHR0cDovL3d3dy53My5vcmcvMjAwMC9zdmciIGlkPSJzdmcxNjA5IiB2ZXJzaW9uPSIxLjEiIHZpZXdCb3g9IjAgMCAxNC43MjY3NDkgMTQuNzI2NzM0IiBoZWlnaHQ9IjE0LjcyNjczNG1tIiB3aWR0aD0iMTQuNzI2NzQ5bW0iPiYjeGE7ICA8ZGVmcyBpZD0iZGVmczE2MDMiLz4mI3hhOyAgJiN4YTsgICAgJiN4YTsgICAgJiN4YTsgICYjeGE7ICA8bWV0YWRhdGEgaWQ9Im1ldGFkYXRhMTYwNiI+JiN4YTsgICAgJiN4YTsgICAgICAmI3hhOyAgICAgICAgaW1hZ2Uvc3ZnK3htbCYjeGE7ICAgICAgICAmI3hhOyAgICAgICAgJiN4YTsgICAgICAmI3hhOyAgICAmI3hhOyAgPC9tZXRhZGF0YT4mI3hhOyAgPGcgdHJhbnNmb3JtPSJ0cmFuc2xhdGUoMCwtMjgyLjI3MzIxKSIgaWQ9ImxheWVyMSI+JiN4YTsgICAgPHBhdGggaWQ9InJlY3QyMTY4IiB0cmFuc2Zvcm09InNjYWxlKDAuMjY0NTgzMzMpIiBkPSJtIDAuNSwxMDY3LjM1OTQgdiA0Ni45NjA5IGMgMCw0LjI2NTggMy40MzM0MTksNy42OTkyIDcuNjk5MjE4OCw3LjY5OTIgSCA1NS4xNjAxNTYgdiAtNTQuNjYwMSB6IiBzdHlsZT0iZmlsbDojZmE2ODAwO2ZpbGwtb3BhY2l0eTowLjU7c3Ryb2tlOiNjNzM1MDA7c3Ryb2tlLXdpZHRoOjAuOTk5OTk5OTQ7c3Ryb2tlLW9wYWNpdHk6MC41Ii8+JiN4YTsgIDwvZz4mI3hhOzwvc3ZnPg==;flipH=1;flipV=1;" parent="2aNpIFmSgTMSh7Xv1_dq-9" vertex="1">
          <mxGeometry x="25" y="228" width="55" height="55" as="geometry" />
        </mxCell>
        <mxCell id="2aNpIFmSgTMSh7Xv1_dq-8" value="" style="shape=image;verticalLabelPosition=bottom;labelBackgroundColor=default;verticalAlign=top;aspect=fixed;imageAspect=0;image=data:image/svg+xml,PHN2ZyB4bWxucz0iaHR0cDovL3d3dy53My5vcmcvMjAwMC9zdmciIGlkPSJzdmcxNjA5IiB2ZXJzaW9uPSIxLjEiIHZpZXdCb3g9IjAgMCAxNC43MjY3NDkgMTQuNzI2NzM0IiBoZWlnaHQ9IjE0LjcyNjczNG1tIiB3aWR0aD0iMTQuNzI2NzQ5bW0iPiYjeGE7ICA8ZGVmcyBpZD0iZGVmczE2MDMiLz4mI3hhOyAgJiN4YTsgICAgJiN4YTsgICAgJiN4YTsgICYjeGE7ICA8bWV0YWRhdGEgaWQ9Im1ldGFkYXRhMTYwNiI+JiN4YTsgICAgJiN4YTsgICAgICAmI3hhOyAgICAgICAgaW1hZ2Uvc3ZnK3htbCYjeGE7ICAgICAgICAmI3hhOyAgICAgICAgJiN4YTsgICAgICAmI3hhOyAgICAmI3hhOyAgPC9tZXRhZGF0YT4mI3hhOyAgPGcgdHJhbnNmb3JtPSJ0cmFuc2xhdGUoMCwtMjgyLjI3MzIxKSIgaWQ9ImxheWVyMSI+JiN4YTsgICAgPHBhdGggaWQ9InJlY3QyMTY4IiB0cmFuc2Zvcm09InNjYWxlKDAuMjY0NTgzMzMpIiBkPSJtIDAuNSwxMDY3LjM1OTQgdiA0Ni45NjA5IGMgMCw0LjI2NTggMy40MzM0MTksNy42OTkyIDcuNjk5MjE4OCw3LjY5OTIgSCA1NS4xNjAxNTYgdiAtNTQuNjYwMSB6IiBzdHlsZT0iZmlsbDojZmE2ODAwO2ZpbGwtb3BhY2l0eTowLjU7c3Ryb2tlOiNjNzM1MDA7c3Ryb2tlLXdpZHRoOjAuOTk5OTk5OTQ7c3Ryb2tlLW9wYWNpdHk6MC41Ii8+JiN4YTsgIDwvZz4mI3hhOzwvc3ZnPg==;flipV=1;" parent="2aNpIFmSgTMSh7Xv1_dq-9" vertex="1">
          <mxGeometry x="221" y="228" width="55" height="55" as="geometry" />
        </mxCell>
        <mxCell id="2aNpIFmSgTMSh7Xv1_dq-40" value="" style="group" parent="rADEs_3C0373_7XRpB---1" vertex="1" connectable="0">
          <mxGeometry x="88" y="80" width="464" height="480" as="geometry" />
        </mxCell>
        <mxCell id="2aNpIFmSgTMSh7Xv1_dq-28" value="" style="group" parent="2aNpIFmSgTMSh7Xv1_dq-40" vertex="1" connectable="0">
          <mxGeometry width="224" height="240" as="geometry" />
        </mxCell>
        <mxCell id="2aNpIFmSgTMSh7Xv1_dq-4" value="" style="group" parent="2aNpIFmSgTMSh7Xv1_dq-28" vertex="1" connectable="0">
          <mxGeometry width="224" height="240" as="geometry" />
        </mxCell>
        <mxCell id="rADEs_3C0373_7XRpB---151" value="&lt;font style=&quot;font-size: 16px;&quot;&gt;1&lt;/font&gt;" style="whiteSpace=wrap;html=1;aspect=fixed;" parent="2aNpIFmSgTMSh7Xv1_dq-4" vertex="1">
          <mxGeometry x="32" y="40" width="40" height="40" as="geometry" />
        </mxCell>
        <mxCell id="rADEs_3C0373_7XRpB---152" value="&lt;font style=&quot;font-size: 16px;&quot;&gt;0&lt;/font&gt;" style="whiteSpace=wrap;html=1;aspect=fixed;" parent="2aNpIFmSgTMSh7Xv1_dq-4" vertex="1">
          <mxGeometry x="72" y="40" width="40" height="40" as="geometry" />
        </mxCell>
        <mxCell id="rADEs_3C0373_7XRpB---153" value="&lt;font style=&quot;font-size: 16px;&quot;&gt;0&lt;/font&gt;" style="whiteSpace=wrap;html=1;aspect=fixed;" parent="2aNpIFmSgTMSh7Xv1_dq-4" vertex="1">
          <mxGeometry x="112" y="40" width="40" height="40" as="geometry" />
        </mxCell>
        <mxCell id="rADEs_3C0373_7XRpB---154" value="&lt;font style=&quot;font-size: 16px;&quot;&gt;1&lt;/font&gt;" style="whiteSpace=wrap;html=1;aspect=fixed;" parent="2aNpIFmSgTMSh7Xv1_dq-4" vertex="1">
          <mxGeometry x="152" y="40" width="40" height="40" as="geometry" />
        </mxCell>
        <mxCell id="rADEs_3C0373_7XRpB---155" value="&lt;font style=&quot;font-size: 16px;&quot;&gt;1&lt;/font&gt;" style="whiteSpace=wrap;html=1;aspect=fixed;fillColor=#FFFFFF;" parent="2aNpIFmSgTMSh7Xv1_dq-4" vertex="1">
          <mxGeometry x="32" y="80" width="40" height="40" as="geometry" />
        </mxCell>
        <mxCell id="rADEs_3C0373_7XRpB---156" value="&lt;font style=&quot;font-size: 16px;&quot;&gt;1&lt;/font&gt;" style="whiteSpace=wrap;html=1;aspect=fixed;fillColor=#FFFFFF;" parent="2aNpIFmSgTMSh7Xv1_dq-4" vertex="1">
          <mxGeometry x="72" y="80" width="40" height="40" as="geometry" />
        </mxCell>
        <mxCell id="rADEs_3C0373_7XRpB---157" value="&lt;font style=&quot;font-size: 16px;&quot;&gt;0&lt;/font&gt;" style="whiteSpace=wrap;html=1;aspect=fixed;fillColor=#FFFFFF;" parent="2aNpIFmSgTMSh7Xv1_dq-4" vertex="1">
          <mxGeometry x="112" y="80" width="40" height="40" as="geometry" />
        </mxCell>
        <mxCell id="rADEs_3C0373_7XRpB---158" value="&lt;font style=&quot;font-size: 16px;&quot;&gt;0&lt;/font&gt;" style="whiteSpace=wrap;html=1;aspect=fixed;fillColor=#FFFFFF;" parent="2aNpIFmSgTMSh7Xv1_dq-4" vertex="1">
          <mxGeometry x="152" y="80" width="40" height="40" as="geometry" />
        </mxCell>
        <mxCell id="rADEs_3C0373_7XRpB---159" value="" style="endArrow=none;html=1;rounded=0;" parent="2aNpIFmSgTMSh7Xv1_dq-4" edge="1">
          <mxGeometry width="50" height="50" relative="1" as="geometry">
            <mxPoint x="22" y="200" as="sourcePoint" />
            <mxPoint x="22" y="120" as="targetPoint" />
          </mxGeometry>
        </mxCell>
        <mxCell id="rADEs_3C0373_7XRpB---160" value="" style="endArrow=none;html=1;rounded=0;" parent="2aNpIFmSgTMSh7Xv1_dq-4" edge="1">
          <mxGeometry width="50" height="50" relative="1" as="geometry">
            <mxPoint x="112" y="30" as="sourcePoint" />
            <mxPoint x="192" y="30" as="targetPoint" />
          </mxGeometry>
        </mxCell>
        <mxCell id="rADEs_3C0373_7XRpB---161" value="" style="endArrow=none;html=1;rounded=0;" parent="2aNpIFmSgTMSh7Xv1_dq-4" edge="1">
          <mxGeometry width="50" height="50" relative="1" as="geometry">
            <mxPoint x="72" y="210" as="sourcePoint" />
            <mxPoint x="152" y="210" as="targetPoint" />
          </mxGeometry>
        </mxCell>
        <mxCell id="rADEs_3C0373_7XRpB---162" value="A" style="text;html=1;strokeColor=none;fillColor=none;align=center;verticalAlign=middle;whiteSpace=wrap;rounded=0;fontSize=16;" parent="2aNpIFmSgTMSh7Xv1_dq-4" vertex="1">
          <mxGeometry y="145" width="20" height="30" as="geometry" />
        </mxCell>
        <mxCell id="rADEs_3C0373_7XRpB---163" value="C" style="text;html=1;strokeColor=none;fillColor=none;align=center;verticalAlign=middle;whiteSpace=wrap;rounded=0;fontSize=16;" parent="2aNpIFmSgTMSh7Xv1_dq-4" vertex="1">
          <mxGeometry x="142" width="20" height="30" as="geometry" />
        </mxCell>
        <mxCell id="rADEs_3C0373_7XRpB---164" value="D" style="text;html=1;strokeColor=none;fillColor=none;align=center;verticalAlign=middle;whiteSpace=wrap;rounded=0;fontSize=16;" parent="2aNpIFmSgTMSh7Xv1_dq-4" vertex="1">
          <mxGeometry x="102" y="210" width="20" height="30" as="geometry" />
        </mxCell>
        <mxCell id="6qeitvOZvcUT2dIW3SHl-0" value="&lt;font style=&quot;font-size: 16px;&quot;&gt;1&lt;/font&gt;" style="whiteSpace=wrap;html=1;aspect=fixed;fillColor=#E0E0E0;" parent="2aNpIFmSgTMSh7Xv1_dq-4" vertex="1">
          <mxGeometry x="32" y="120" width="40" height="40" as="geometry" />
        </mxCell>
        <mxCell id="6qeitvOZvcUT2dIW3SHl-1" value="&lt;font style=&quot;font-size: 16px;&quot;&gt;1&lt;/font&gt;" style="whiteSpace=wrap;html=1;aspect=fixed;fillColor=#E0E0E0;" parent="2aNpIFmSgTMSh7Xv1_dq-4" vertex="1">
          <mxGeometry x="72" y="120" width="40" height="40" as="geometry" />
        </mxCell>
        <mxCell id="6qeitvOZvcUT2dIW3SHl-2" value="&lt;font style=&quot;font-size: 16px;&quot;&gt;0&lt;/font&gt;" style="whiteSpace=wrap;html=1;aspect=fixed;fillColor=#E0E0E0;" parent="2aNpIFmSgTMSh7Xv1_dq-4" vertex="1">
          <mxGeometry x="112" y="120" width="40" height="40" as="geometry" />
        </mxCell>
        <mxCell id="6qeitvOZvcUT2dIW3SHl-3" value="&lt;font style=&quot;font-size: 16px;&quot;&gt;0&lt;/font&gt;" style="whiteSpace=wrap;html=1;aspect=fixed;fillColor=#E0E0E0;" parent="2aNpIFmSgTMSh7Xv1_dq-4" vertex="1">
          <mxGeometry x="152" y="120" width="40" height="40" as="geometry" />
        </mxCell>
        <mxCell id="6qeitvOZvcUT2dIW3SHl-4" value="&lt;font style=&quot;font-size: 16px;&quot;&gt;1&lt;/font&gt;" style="whiteSpace=wrap;html=1;aspect=fixed;fillColor=#E0E0E0;" parent="2aNpIFmSgTMSh7Xv1_dq-4" vertex="1">
          <mxGeometry x="32" y="160" width="40" height="40" as="geometry" />
        </mxCell>
        <mxCell id="6qeitvOZvcUT2dIW3SHl-5" value="&lt;font style=&quot;font-size: 16px;&quot;&gt;0&lt;/font&gt;" style="whiteSpace=wrap;html=1;aspect=fixed;fillColor=#E0E0E0;" parent="2aNpIFmSgTMSh7Xv1_dq-4" vertex="1">
          <mxGeometry x="72" y="160" width="40" height="40" as="geometry" />
        </mxCell>
        <mxCell id="6qeitvOZvcUT2dIW3SHl-6" value="&lt;font style=&quot;font-size: 16px;&quot;&gt;0&lt;/font&gt;" style="whiteSpace=wrap;html=1;aspect=fixed;fillColor=#E0E0E0;" parent="2aNpIFmSgTMSh7Xv1_dq-4" vertex="1">
          <mxGeometry x="112" y="160" width="40" height="40" as="geometry" />
        </mxCell>
        <mxCell id="6qeitvOZvcUT2dIW3SHl-7" value="&lt;font style=&quot;font-size: 16px;&quot;&gt;1&lt;/font&gt;" style="whiteSpace=wrap;html=1;aspect=fixed;fillColor=#E0E0E0;" parent="2aNpIFmSgTMSh7Xv1_dq-4" vertex="1">
          <mxGeometry x="152" y="160" width="40" height="40" as="geometry" />
        </mxCell>
        <mxCell id="6qeitvOZvcUT2dIW3SHl-9" value="" style="endArrow=none;html=1;rounded=0;" parent="2aNpIFmSgTMSh7Xv1_dq-4" edge="1">
          <mxGeometry width="50" height="50" relative="1" as="geometry">
            <mxPoint x="202" y="160" as="sourcePoint" />
            <mxPoint x="202" y="80" as="targetPoint" />
          </mxGeometry>
        </mxCell>
        <mxCell id="6qeitvOZvcUT2dIW3SHl-10" value="B" style="text;html=1;strokeColor=none;fillColor=none;align=center;verticalAlign=middle;whiteSpace=wrap;rounded=0;fontSize=16;" parent="2aNpIFmSgTMSh7Xv1_dq-4" vertex="1">
          <mxGeometry x="204" y="105" width="20" height="30" as="geometry" />
        </mxCell>
        <mxCell id="2aNpIFmSgTMSh7Xv1_dq-14" value="" style="shape=image;verticalLabelPosition=bottom;labelBackgroundColor=default;verticalAlign=top;aspect=fixed;imageAspect=0;image=data:image/svg+xml,PHN2ZyB4bWxucz0iaHR0cDovL3d3dy53My5vcmcvMjAwMC9zdmciIGlkPSJzdmcxNjA5IiB2ZXJzaW9uPSIxLjEiIHZpZXdCb3g9IjAgMCAxNC43MjY3NDkgMTQuNzI2NzM0IiBoZWlnaHQ9IjE0LjcyNjczNG1tIiB3aWR0aD0iMTQuNzI2NzQ5bW0iPiYjeGE7ICA8ZGVmcyBpZD0iZGVmczE2MDMiLz4mI3hhOyAgJiN4YTsgICAgJiN4YTsgICAgJiN4YTsgICYjeGE7ICA8bWV0YWRhdGEgaWQ9Im1ldGFkYXRhMTYwNiI+JiN4YTsgICAgJiN4YTsgICAgICAmI3hhOyAgICAgICAgaW1hZ2Uvc3ZnK3htbCYjeGE7ICAgICAgICAmI3hhOyAgICAgICAgJiN4YTsgICAgICAmI3hhOyAgICAmI3hhOyAgPC9tZXRhZGF0YT4mI3hhOyAgPGcgdHJhbnNmb3JtPSJ0cmFuc2xhdGUoMCwtMjgyLjI3MzIxKSIgaWQ9ImxheWVyMSI+JiN4YTsgICAgPHBhdGggaWQ9InJlY3QyMTY4IiB0cmFuc2Zvcm09InNjYWxlKDAuMjY0NTgzMzMpIiBkPSJtIDAuNSwxMDY3LjM1OTQgdiA0Ni45NjA5IGMgMCw0LjI2NTggMy40MzM0MTksNy42OTkyIDcuNjk5MjE4OCw3LjY5OTIgSCA1NS4xNjAxNTYgdiAtNTQuNjYwMSB6IiBzdHlsZT0iZmlsbDojZmE2ODAwO2ZpbGwtb3BhY2l0eTowLjU7c3Ryb2tlOiNjNzM1MDA7c3Ryb2tlLXdpZHRoOjAuOTk5OTk5OTQ7c3Ryb2tlLW9wYWNpdHk6MC41Ii8+JiN4YTsgIDwvZz4mI3hhOzwvc3ZnPg==;" parent="2aNpIFmSgTMSh7Xv1_dq-28" vertex="1">
          <mxGeometry x="158" y="35" width="40" height="40" as="geometry" />
        </mxCell>
        <mxCell id="2aNpIFmSgTMSh7Xv1_dq-18" value="" style="shape=image;verticalLabelPosition=bottom;labelBackgroundColor=default;verticalAlign=top;aspect=fixed;imageAspect=0;image=data:image/svg+xml,PHN2ZyB4bWxucz0iaHR0cDovL3d3dy53My5vcmcvMjAwMC9zdmciIGlkPSJzdmcxNjA5IiB2ZXJzaW9uPSIxLjEiIHZpZXdCb3g9IjAgMCAxNC43MjY3NDkgMTQuNzI2NzM0IiBoZWlnaHQ9IjE0LjcyNjczNG1tIiB3aWR0aD0iMTQuNzI2NzQ5bW0iPiYjeGE7ICA8ZGVmcyBpZD0iZGVmczE2MDMiLz4mI3hhOyAgJiN4YTsgICAgJiN4YTsgICAgJiN4YTsgICYjeGE7ICA8bWV0YWRhdGEgaWQ9Im1ldGFkYXRhMTYwNiI+JiN4YTsgICAgJiN4YTsgICAgICAmI3hhOyAgICAgICAgaW1hZ2Uvc3ZnK3htbCYjeGE7ICAgICAgICAmI3hhOyAgICAgICAgJiN4YTsgICAgICAmI3hhOyAgICAmI3hhOyAgPC9tZXRhZGF0YT4mI3hhOyAgPGcgdHJhbnNmb3JtPSJ0cmFuc2xhdGUoMCwtMjgyLjI3MzIxKSIgaWQ9ImxheWVyMSI+JiN4YTsgICAgPHBhdGggaWQ9InJlY3QyMTY4IiB0cmFuc2Zvcm09InNjYWxlKDAuMjY0NTgzMzMpIiBkPSJtIDAuNSwxMDY3LjM1OTQgdiA0Ni45NjA5IGMgMCw0LjI2NTggMy40MzM0MTksNy42OTkyIDcuNjk5MjE4OCw3LjY5OTIgSCA1NS4xNjAxNTYgdiAtNTQuNjYwMSB6IiBzdHlsZT0iZmlsbDojZmE2ODAwO2ZpbGwtb3BhY2l0eTowLjU7c3Ryb2tlOiNjNzM1MDA7c3Ryb2tlLXdpZHRoOjAuOTk5OTk5OTQ7c3Ryb2tlLW9wYWNpdHk6MC41Ii8+JiN4YTsgIDwvZz4mI3hhOzwvc3ZnPg==;flipH=1;" parent="2aNpIFmSgTMSh7Xv1_dq-28" vertex="1">
          <mxGeometry x="28" y="35" width="40" height="40" as="geometry" />
        </mxCell>
        <mxCell id="2aNpIFmSgTMSh7Xv1_dq-23" value="" style="shape=image;verticalLabelPosition=bottom;labelBackgroundColor=default;verticalAlign=top;aspect=fixed;imageAspect=0;image=data:image/svg+xml,PHN2ZyB4bWxucz0iaHR0cDovL3d3dy53My5vcmcvMjAwMC9zdmciIGlkPSJzdmcxNjA5IiB2ZXJzaW9uPSIxLjEiIHZpZXdCb3g9IjAgMCAxNC43MjY3NDkgMTQuNzI2NzM0IiBoZWlnaHQ9IjE0LjcyNjczNG1tIiB3aWR0aD0iMTQuNzI2NzQ5bW0iPiYjeGE7ICA8ZGVmcyBpZD0iZGVmczE2MDMiLz4mI3hhOyAgJiN4YTsgICAgJiN4YTsgICAgJiN4YTsgICYjeGE7ICA8bWV0YWRhdGEgaWQ9Im1ldGFkYXRhMTYwNiI+JiN4YTsgICAgJiN4YTsgICAgICAmI3hhOyAgICAgICAgaW1hZ2Uvc3ZnK3htbCYjeGE7ICAgICAgICAmI3hhOyAgICAgICAgJiN4YTsgICAgICAmI3hhOyAgICAmI3hhOyAgPC9tZXRhZGF0YT4mI3hhOyAgPGcgdHJhbnNmb3JtPSJ0cmFuc2xhdGUoMCwtMjgyLjI3MzIxKSIgaWQ9ImxheWVyMSI+JiN4YTsgICAgPHBhdGggaWQ9InJlY3QyMTY4IiB0cmFuc2Zvcm09InNjYWxlKDAuMjY0NTgzMzMpIiBkPSJtIDAuNSwxMDY3LjM1OTQgdiA0Ni45NjA5IGMgMCw0LjI2NTggMy40MzM0MTksNy42OTkyIDcuNjk5MjE4OCw3LjY5OTIgSCA1NS4xNjAxNTYgdiAtNTQuNjYwMSB6IiBzdHlsZT0iZmlsbDojZmE2ODAwO2ZpbGwtb3BhY2l0eTowLjU7c3Ryb2tlOiNjNzM1MDA7c3Ryb2tlLXdpZHRoOjAuOTk5OTk5OTQ7c3Ryb2tlLW9wYWNpdHk6MC41Ii8+JiN4YTsgIDwvZz4mI3hhOzwvc3ZnPg==;flipH=1;flipV=1;" parent="2aNpIFmSgTMSh7Xv1_dq-28" vertex="1">
          <mxGeometry x="28" y="165" width="40" height="40" as="geometry" />
        </mxCell>
        <mxCell id="2aNpIFmSgTMSh7Xv1_dq-24" value="" style="shape=image;verticalLabelPosition=bottom;labelBackgroundColor=default;verticalAlign=top;aspect=fixed;imageAspect=0;image=data:image/svg+xml,PHN2ZyB4bWxucz0iaHR0cDovL3d3dy53My5vcmcvMjAwMC9zdmciIGlkPSJzdmcxNjA5IiB2ZXJzaW9uPSIxLjEiIHZpZXdCb3g9IjAgMCAxNC43MjY3NDkgMTQuNzI2NzM0IiBoZWlnaHQ9IjE0LjcyNjczNG1tIiB3aWR0aD0iMTQuNzI2NzQ5bW0iPiYjeGE7ICA8ZGVmcyBpZD0iZGVmczE2MDMiLz4mI3hhOyAgJiN4YTsgICAgJiN4YTsgICAgJiN4YTsgICYjeGE7ICA8bWV0YWRhdGEgaWQ9Im1ldGFkYXRhMTYwNiI+JiN4YTsgICAgJiN4YTsgICAgICAmI3hhOyAgICAgICAgaW1hZ2Uvc3ZnK3htbCYjeGE7ICAgICAgICAmI3hhOyAgICAgICAgJiN4YTsgICAgICAmI3hhOyAgICAmI3hhOyAgPC9tZXRhZGF0YT4mI3hhOyAgPGcgdHJhbnNmb3JtPSJ0cmFuc2xhdGUoMCwtMjgyLjI3MzIxKSIgaWQ9ImxheWVyMSI+JiN4YTsgICAgPHBhdGggaWQ9InJlY3QyMTY4IiB0cmFuc2Zvcm09InNjYWxlKDAuMjY0NTgzMzMpIiBkPSJtIDAuNSwxMDY3LjM1OTQgdiA0Ni45NjA5IGMgMCw0LjI2NTggMy40MzM0MTksNy42OTkyIDcuNjk5MjE4OCw3LjY5OTIgSCA1NS4xNjAxNTYgdiAtNTQuNjYwMSB6IiBzdHlsZT0iZmlsbDojZmE2ODAwO2ZpbGwtb3BhY2l0eTowLjU7c3Ryb2tlOiNjNzM1MDA7c3Ryb2tlLXdpZHRoOjAuOTk5OTk5OTQ7c3Ryb2tlLW9wYWNpdHk6MC41Ii8+JiN4YTsgIDwvZz4mI3hhOzwvc3ZnPg==;flipH=0;flipV=1;" parent="2aNpIFmSgTMSh7Xv1_dq-28" vertex="1">
          <mxGeometry x="158" y="165" width="40" height="40" as="geometry" />
        </mxCell>
        <mxCell id="2aNpIFmSgTMSh7Xv1_dq-30" value="" style="group" parent="2aNpIFmSgTMSh7Xv1_dq-40" vertex="1" connectable="0">
          <mxGeometry x="240" width="224" height="240" as="geometry" />
        </mxCell>
        <mxCell id="6qeitvOZvcUT2dIW3SHl-39" value="D" style="text;html=1;strokeColor=none;fillColor=none;align=center;verticalAlign=middle;whiteSpace=wrap;rounded=0;fontSize=16;" parent="2aNpIFmSgTMSh7Xv1_dq-30" vertex="1">
          <mxGeometry x="102" y="210" width="20" height="30" as="geometry" />
        </mxCell>
        <mxCell id="2aNpIFmSgTMSh7Xv1_dq-3" value="" style="group" parent="2aNpIFmSgTMSh7Xv1_dq-30" vertex="1" connectable="0">
          <mxGeometry x="22" width="202" height="210" as="geometry" />
        </mxCell>
        <mxCell id="6qeitvOZvcUT2dIW3SHl-40" value="&lt;font style=&quot;font-size: 16px;&quot;&gt;1&lt;/font&gt;" style="whiteSpace=wrap;html=1;aspect=fixed;fillColor=#E0E0E0;" parent="2aNpIFmSgTMSh7Xv1_dq-3" vertex="1">
          <mxGeometry x="10" y="120" width="40" height="40" as="geometry" />
        </mxCell>
        <mxCell id="6qeitvOZvcUT2dIW3SHl-26" value="&lt;font style=&quot;font-size: 16px;&quot;&gt;1&lt;/font&gt;" style="whiteSpace=wrap;html=1;aspect=fixed;" parent="2aNpIFmSgTMSh7Xv1_dq-3" vertex="1">
          <mxGeometry x="10" y="40" width="40" height="40" as="geometry" />
        </mxCell>
        <mxCell id="6qeitvOZvcUT2dIW3SHl-27" value="&lt;font style=&quot;font-size: 16px;&quot;&gt;0&lt;/font&gt;" style="whiteSpace=wrap;html=1;aspect=fixed;" parent="2aNpIFmSgTMSh7Xv1_dq-3" vertex="1">
          <mxGeometry x="50" y="40" width="40" height="40" as="geometry" />
        </mxCell>
        <mxCell id="6qeitvOZvcUT2dIW3SHl-28" value="&lt;font style=&quot;font-size: 16px;&quot;&gt;0&lt;/font&gt;" style="whiteSpace=wrap;html=1;aspect=fixed;" parent="2aNpIFmSgTMSh7Xv1_dq-3" vertex="1">
          <mxGeometry x="90" y="40" width="40" height="40" as="geometry" />
        </mxCell>
        <mxCell id="6qeitvOZvcUT2dIW3SHl-29" value="&lt;font style=&quot;font-size: 16px;&quot;&gt;1&lt;/font&gt;" style="whiteSpace=wrap;html=1;aspect=fixed;" parent="2aNpIFmSgTMSh7Xv1_dq-3" vertex="1">
          <mxGeometry x="130" y="40" width="40" height="40" as="geometry" />
        </mxCell>
        <mxCell id="6qeitvOZvcUT2dIW3SHl-30" value="&lt;font style=&quot;font-size: 16px;&quot;&gt;1&lt;/font&gt;" style="whiteSpace=wrap;html=1;aspect=fixed;fillColor=#E0E0E0;" parent="2aNpIFmSgTMSh7Xv1_dq-3" vertex="1">
          <mxGeometry x="10" y="80" width="40" height="40" as="geometry" />
        </mxCell>
        <mxCell id="6qeitvOZvcUT2dIW3SHl-31" value="&lt;font style=&quot;font-size: 16px;&quot;&gt;1&lt;/font&gt;" style="whiteSpace=wrap;html=1;aspect=fixed;fillColor=#E0E0E0;" parent="2aNpIFmSgTMSh7Xv1_dq-3" vertex="1">
          <mxGeometry x="50" y="80" width="40" height="40" as="geometry" />
        </mxCell>
        <mxCell id="6qeitvOZvcUT2dIW3SHl-32" value="&lt;font style=&quot;font-size: 16px;&quot;&gt;0&lt;/font&gt;" style="whiteSpace=wrap;html=1;aspect=fixed;fillColor=#E0E0E0;" parent="2aNpIFmSgTMSh7Xv1_dq-3" vertex="1">
          <mxGeometry x="90" y="80" width="40" height="40" as="geometry" />
        </mxCell>
        <mxCell id="6qeitvOZvcUT2dIW3SHl-33" value="&lt;font style=&quot;font-size: 16px;&quot;&gt;0&lt;/font&gt;" style="whiteSpace=wrap;html=1;aspect=fixed;fillColor=#E0E0E0;" parent="2aNpIFmSgTMSh7Xv1_dq-3" vertex="1">
          <mxGeometry x="130" y="80" width="40" height="40" as="geometry" />
        </mxCell>
        <mxCell id="6qeitvOZvcUT2dIW3SHl-34" value="" style="endArrow=none;html=1;rounded=0;" parent="2aNpIFmSgTMSh7Xv1_dq-3" edge="1">
          <mxGeometry width="50" height="50" relative="1" as="geometry">
            <mxPoint y="200" as="sourcePoint" />
            <mxPoint y="120" as="targetPoint" />
          </mxGeometry>
        </mxCell>
        <mxCell id="6qeitvOZvcUT2dIW3SHl-35" value="" style="endArrow=none;html=1;rounded=0;" parent="2aNpIFmSgTMSh7Xv1_dq-3" edge="1">
          <mxGeometry width="50" height="50" relative="1" as="geometry">
            <mxPoint x="90" y="30" as="sourcePoint" />
            <mxPoint x="170" y="30" as="targetPoint" />
          </mxGeometry>
        </mxCell>
        <mxCell id="6qeitvOZvcUT2dIW3SHl-36" value="" style="endArrow=none;html=1;rounded=0;" parent="2aNpIFmSgTMSh7Xv1_dq-3" edge="1">
          <mxGeometry width="50" height="50" relative="1" as="geometry">
            <mxPoint x="50" y="210" as="sourcePoint" />
            <mxPoint x="130" y="210" as="targetPoint" />
          </mxGeometry>
        </mxCell>
        <mxCell id="6qeitvOZvcUT2dIW3SHl-38" value="C" style="text;html=1;strokeColor=none;fillColor=none;align=center;verticalAlign=middle;whiteSpace=wrap;rounded=0;fontSize=16;" parent="2aNpIFmSgTMSh7Xv1_dq-3" vertex="1">
          <mxGeometry x="120" width="20" height="30" as="geometry" />
        </mxCell>
        <mxCell id="6qeitvOZvcUT2dIW3SHl-41" value="&lt;font style=&quot;font-size: 16px;&quot;&gt;1&lt;/font&gt;" style="whiteSpace=wrap;html=1;aspect=fixed;fillColor=#E0E0E0;" parent="2aNpIFmSgTMSh7Xv1_dq-3" vertex="1">
          <mxGeometry x="50" y="120" width="40" height="40" as="geometry" />
        </mxCell>
        <mxCell id="6qeitvOZvcUT2dIW3SHl-42" value="&lt;font style=&quot;font-size: 16px;&quot;&gt;0&lt;/font&gt;" style="whiteSpace=wrap;html=1;aspect=fixed;fillColor=#E0E0E0;" parent="2aNpIFmSgTMSh7Xv1_dq-3" vertex="1">
          <mxGeometry x="90" y="120" width="40" height="40" as="geometry" />
        </mxCell>
        <mxCell id="6qeitvOZvcUT2dIW3SHl-43" value="&lt;font style=&quot;font-size: 16px;&quot;&gt;0&lt;/font&gt;" style="whiteSpace=wrap;html=1;aspect=fixed;fillColor=#E0E0E0;" parent="2aNpIFmSgTMSh7Xv1_dq-3" vertex="1">
          <mxGeometry x="130" y="120" width="40" height="40" as="geometry" />
        </mxCell>
        <mxCell id="6qeitvOZvcUT2dIW3SHl-44" value="&lt;font style=&quot;font-size: 16px;&quot;&gt;1&lt;/font&gt;" style="whiteSpace=wrap;html=1;aspect=fixed;fillColor=#FFFFFF;" parent="2aNpIFmSgTMSh7Xv1_dq-3" vertex="1">
          <mxGeometry x="10" y="160" width="40" height="40" as="geometry" />
        </mxCell>
        <mxCell id="6qeitvOZvcUT2dIW3SHl-45" value="&lt;font style=&quot;font-size: 16px;&quot;&gt;0&lt;/font&gt;" style="whiteSpace=wrap;html=1;aspect=fixed;fillColor=#FFFFFF;" parent="2aNpIFmSgTMSh7Xv1_dq-3" vertex="1">
          <mxGeometry x="50" y="160" width="40" height="40" as="geometry" />
        </mxCell>
        <mxCell id="6qeitvOZvcUT2dIW3SHl-46" value="&lt;font style=&quot;font-size: 16px;&quot;&gt;0&lt;/font&gt;" style="whiteSpace=wrap;html=1;aspect=fixed;fillColor=#FFFFFF;" parent="2aNpIFmSgTMSh7Xv1_dq-3" vertex="1">
          <mxGeometry x="90" y="160" width="40" height="40" as="geometry" />
        </mxCell>
        <mxCell id="6qeitvOZvcUT2dIW3SHl-47" value="&lt;font style=&quot;font-size: 16px;&quot;&gt;1&lt;/font&gt;" style="whiteSpace=wrap;html=1;aspect=fixed;fillColor=#FFFFFF;" parent="2aNpIFmSgTMSh7Xv1_dq-3" vertex="1">
          <mxGeometry x="130" y="160" width="40" height="40" as="geometry" />
        </mxCell>
        <mxCell id="6qeitvOZvcUT2dIW3SHl-48" value="" style="endArrow=none;html=1;rounded=0;" parent="2aNpIFmSgTMSh7Xv1_dq-3" edge="1">
          <mxGeometry width="50" height="50" relative="1" as="geometry">
            <mxPoint x="180" y="160" as="sourcePoint" />
            <mxPoint x="180" y="80" as="targetPoint" />
          </mxGeometry>
        </mxCell>
        <mxCell id="6qeitvOZvcUT2dIW3SHl-49" value="B" style="text;html=1;strokeColor=none;fillColor=none;align=center;verticalAlign=middle;whiteSpace=wrap;rounded=0;fontSize=16;" parent="2aNpIFmSgTMSh7Xv1_dq-3" vertex="1">
          <mxGeometry x="182" y="105" width="20" height="30" as="geometry" />
        </mxCell>
        <mxCell id="2aNpIFmSgTMSh7Xv1_dq-13" value="" style="shape=image;verticalLabelPosition=bottom;labelBackgroundColor=default;verticalAlign=top;aspect=fixed;imageAspect=0;image=data:image/svg+xml,PHN2ZyB4bWxucz0iaHR0cDovL3d3dy53My5vcmcvMjAwMC9zdmciIGlkPSJzdmcxNjA5IiB2ZXJzaW9uPSIxLjEiIHZpZXdCb3g9IjAgMCAxNC43MjY3NDkgMTQuNzI2NzM0IiBoZWlnaHQ9IjE0LjcyNjczNG1tIiB3aWR0aD0iMTQuNzI2NzQ5bW0iPiYjeGE7ICA8ZGVmcyBpZD0iZGVmczE2MDMiLz4mI3hhOyAgJiN4YTsgICAgJiN4YTsgICAgJiN4YTsgICYjeGE7ICA8bWV0YWRhdGEgaWQ9Im1ldGFkYXRhMTYwNiI+JiN4YTsgICAgJiN4YTsgICAgICAmI3hhOyAgICAgICAgaW1hZ2Uvc3ZnK3htbCYjeGE7ICAgICAgICAmI3hhOyAgICAgICAgJiN4YTsgICAgICAmI3hhOyAgICAmI3hhOyAgPC9tZXRhZGF0YT4mI3hhOyAgPGcgdHJhbnNmb3JtPSJ0cmFuc2xhdGUoMCwtMjgyLjI3MzIxKSIgaWQ9ImxheWVyMSI+JiN4YTsgICAgPHBhdGggaWQ9InJlY3QyMTY4IiB0cmFuc2Zvcm09InNjYWxlKDAuMjY0NTgzMzMpIiBkPSJtIDAuNSwxMDY3LjM1OTQgdiA0Ni45NjA5IGMgMCw0LjI2NTggMy40MzM0MTksNy42OTkyIDcuNjk5MjE4OCw3LjY5OTIgSCA1NS4xNjAxNTYgdiAtNTQuNjYwMSB6IiBzdHlsZT0iZmlsbDojZmE2ODAwO2ZpbGwtb3BhY2l0eTowLjU7c3Ryb2tlOiNjNzM1MDA7c3Ryb2tlLXdpZHRoOjAuOTk5OTk5OTQ7c3Ryb2tlLW9wYWNpdHk6MC41Ii8+JiN4YTsgIDwvZz4mI3hhOzwvc3ZnPg==;" parent="2aNpIFmSgTMSh7Xv1_dq-30" vertex="1">
          <mxGeometry x="158" y="35" width="40" height="40" as="geometry" />
        </mxCell>
        <mxCell id="2aNpIFmSgTMSh7Xv1_dq-17" value="" style="shape=image;verticalLabelPosition=bottom;labelBackgroundColor=default;verticalAlign=top;aspect=fixed;imageAspect=0;image=data:image/svg+xml,PHN2ZyB4bWxucz0iaHR0cDovL3d3dy53My5vcmcvMjAwMC9zdmciIGlkPSJzdmcxNjA5IiB2ZXJzaW9uPSIxLjEiIHZpZXdCb3g9IjAgMCAxNC43MjY3NDkgMTQuNzI2NzM0IiBoZWlnaHQ9IjE0LjcyNjczNG1tIiB3aWR0aD0iMTQuNzI2NzQ5bW0iPiYjeGE7ICA8ZGVmcyBpZD0iZGVmczE2MDMiLz4mI3hhOyAgJiN4YTsgICAgJiN4YTsgICAgJiN4YTsgICYjeGE7ICA8bWV0YWRhdGEgaWQ9Im1ldGFkYXRhMTYwNiI+JiN4YTsgICAgJiN4YTsgICAgICAmI3hhOyAgICAgICAgaW1hZ2Uvc3ZnK3htbCYjeGE7ICAgICAgICAmI3hhOyAgICAgICAgJiN4YTsgICAgICAmI3hhOyAgICAmI3hhOyAgPC9tZXRhZGF0YT4mI3hhOyAgPGcgdHJhbnNmb3JtPSJ0cmFuc2xhdGUoMCwtMjgyLjI3MzIxKSIgaWQ9ImxheWVyMSI+JiN4YTsgICAgPHBhdGggaWQ9InJlY3QyMTY4IiB0cmFuc2Zvcm09InNjYWxlKDAuMjY0NTgzMzMpIiBkPSJtIDAuNSwxMDY3LjM1OTQgdiA0Ni45NjA5IGMgMCw0LjI2NTggMy40MzM0MTksNy42OTkyIDcuNjk5MjE4OCw3LjY5OTIgSCA1NS4xNjAxNTYgdiAtNTQuNjYwMSB6IiBzdHlsZT0iZmlsbDojZmE2ODAwO2ZpbGwtb3BhY2l0eTowLjU7c3Ryb2tlOiNjNzM1MDA7c3Ryb2tlLXdpZHRoOjAuOTk5OTk5OTQ7c3Ryb2tlLW9wYWNpdHk6MC41Ii8+JiN4YTsgIDwvZz4mI3hhOzwvc3ZnPg==;flipH=1;" parent="2aNpIFmSgTMSh7Xv1_dq-30" vertex="1">
          <mxGeometry x="28" y="35" width="40" height="40" as="geometry" />
        </mxCell>
        <mxCell id="2aNpIFmSgTMSh7Xv1_dq-22" value="" style="shape=image;verticalLabelPosition=bottom;labelBackgroundColor=default;verticalAlign=top;aspect=fixed;imageAspect=0;image=data:image/svg+xml,PHN2ZyB4bWxucz0iaHR0cDovL3d3dy53My5vcmcvMjAwMC9zdmciIGlkPSJzdmcxNjA5IiB2ZXJzaW9uPSIxLjEiIHZpZXdCb3g9IjAgMCAxNC43MjY3NDkgMTQuNzI2NzM0IiBoZWlnaHQ9IjE0LjcyNjczNG1tIiB3aWR0aD0iMTQuNzI2NzQ5bW0iPiYjeGE7ICA8ZGVmcyBpZD0iZGVmczE2MDMiLz4mI3hhOyAgJiN4YTsgICAgJiN4YTsgICAgJiN4YTsgICYjeGE7ICA8bWV0YWRhdGEgaWQ9Im1ldGFkYXRhMTYwNiI+JiN4YTsgICAgJiN4YTsgICAgICAmI3hhOyAgICAgICAgaW1hZ2Uvc3ZnK3htbCYjeGE7ICAgICAgICAmI3hhOyAgICAgICAgJiN4YTsgICAgICAmI3hhOyAgICAmI3hhOyAgPC9tZXRhZGF0YT4mI3hhOyAgPGcgdHJhbnNmb3JtPSJ0cmFuc2xhdGUoMCwtMjgyLjI3MzIxKSIgaWQ9ImxheWVyMSI+JiN4YTsgICAgPHBhdGggaWQ9InJlY3QyMTY4IiB0cmFuc2Zvcm09InNjYWxlKDAuMjY0NTgzMzMpIiBkPSJtIDAuNSwxMDY3LjM1OTQgdiA0Ni45NjA5IGMgMCw0LjI2NTggMy40MzM0MTksNy42OTkyIDcuNjk5MjE4OCw3LjY5OTIgSCA1NS4xNjAxNTYgdiAtNTQuNjYwMSB6IiBzdHlsZT0iZmlsbDojZmE2ODAwO2ZpbGwtb3BhY2l0eTowLjU7c3Ryb2tlOiNjNzM1MDA7c3Ryb2tlLXdpZHRoOjAuOTk5OTk5OTQ7c3Ryb2tlLW9wYWNpdHk6MC41Ii8+JiN4YTsgIDwvZz4mI3hhOzwvc3ZnPg==;flipH=1;flipV=1;" parent="2aNpIFmSgTMSh7Xv1_dq-30" vertex="1">
          <mxGeometry x="28" y="165" width="40" height="40" as="geometry" />
        </mxCell>
        <mxCell id="2aNpIFmSgTMSh7Xv1_dq-25" value="" style="shape=image;verticalLabelPosition=bottom;labelBackgroundColor=default;verticalAlign=top;aspect=fixed;imageAspect=0;image=data:image/svg+xml,PHN2ZyB4bWxucz0iaHR0cDovL3d3dy53My5vcmcvMjAwMC9zdmciIGlkPSJzdmcxNjA5IiB2ZXJzaW9uPSIxLjEiIHZpZXdCb3g9IjAgMCAxNC43MjY3NDkgMTQuNzI2NzM0IiBoZWlnaHQ9IjE0LjcyNjczNG1tIiB3aWR0aD0iMTQuNzI2NzQ5bW0iPiYjeGE7ICA8ZGVmcyBpZD0iZGVmczE2MDMiLz4mI3hhOyAgJiN4YTsgICAgJiN4YTsgICAgJiN4YTsgICYjeGE7ICA8bWV0YWRhdGEgaWQ9Im1ldGFkYXRhMTYwNiI+JiN4YTsgICAgJiN4YTsgICAgICAmI3hhOyAgICAgICAgaW1hZ2Uvc3ZnK3htbCYjeGE7ICAgICAgICAmI3hhOyAgICAgICAgJiN4YTsgICAgICAmI3hhOyAgICAmI3hhOyAgPC9tZXRhZGF0YT4mI3hhOyAgPGcgdHJhbnNmb3JtPSJ0cmFuc2xhdGUoMCwtMjgyLjI3MzIxKSIgaWQ9ImxheWVyMSI+JiN4YTsgICAgPHBhdGggaWQ9InJlY3QyMTY4IiB0cmFuc2Zvcm09InNjYWxlKDAuMjY0NTgzMzMpIiBkPSJtIDAuNSwxMDY3LjM1OTQgdiA0Ni45NjA5IGMgMCw0LjI2NTggMy40MzM0MTksNy42OTkyIDcuNjk5MjE4OCw3LjY5OTIgSCA1NS4xNjAxNTYgdiAtNTQuNjYwMSB6IiBzdHlsZT0iZmlsbDojZmE2ODAwO2ZpbGwtb3BhY2l0eTowLjU7c3Ryb2tlOiNjNzM1MDA7c3Ryb2tlLXdpZHRoOjAuOTk5OTk5OTQ7c3Ryb2tlLW9wYWNpdHk6MC41Ii8+JiN4YTsgIDwvZz4mI3hhOzwvc3ZnPg==;flipH=0;flipV=1;" parent="2aNpIFmSgTMSh7Xv1_dq-30" vertex="1">
          <mxGeometry x="158" y="165" width="40" height="40" as="geometry" />
        </mxCell>
        <mxCell id="2aNpIFmSgTMSh7Xv1_dq-29" value="A" style="text;html=1;strokeColor=none;fillColor=none;align=center;verticalAlign=middle;whiteSpace=wrap;rounded=0;fontSize=16;" parent="2aNpIFmSgTMSh7Xv1_dq-30" vertex="1">
          <mxGeometry y="145" width="20" height="30" as="geometry" />
        </mxCell>
        <mxCell id="2aNpIFmSgTMSh7Xv1_dq-31" value="" style="group" parent="2aNpIFmSgTMSh7Xv1_dq-40" vertex="1" connectable="0">
          <mxGeometry y="240" width="224" height="240" as="geometry" />
        </mxCell>
        <mxCell id="2aNpIFmSgTMSh7Xv1_dq-1" value="" style="group" parent="2aNpIFmSgTMSh7Xv1_dq-31" vertex="1" connectable="0">
          <mxGeometry width="224" height="240" as="geometry" />
        </mxCell>
        <mxCell id="6qeitvOZvcUT2dIW3SHl-50" value="&lt;font style=&quot;font-size: 16px;&quot;&gt;1&lt;/font&gt;" style="whiteSpace=wrap;html=1;aspect=fixed;" parent="2aNpIFmSgTMSh7Xv1_dq-1" vertex="1">
          <mxGeometry x="32" y="40" width="40" height="40" as="geometry" />
        </mxCell>
        <mxCell id="6qeitvOZvcUT2dIW3SHl-51" value="&lt;font style=&quot;font-size: 16px;&quot;&gt;0&lt;/font&gt;" style="whiteSpace=wrap;html=1;aspect=fixed;" parent="2aNpIFmSgTMSh7Xv1_dq-1" vertex="1">
          <mxGeometry x="72" y="40" width="40" height="40" as="geometry" />
        </mxCell>
        <mxCell id="6qeitvOZvcUT2dIW3SHl-52" value="&lt;font style=&quot;font-size: 16px;&quot;&gt;0&lt;/font&gt;" style="whiteSpace=wrap;html=1;aspect=fixed;fillColor=#E0E0E0;" parent="2aNpIFmSgTMSh7Xv1_dq-1" vertex="1">
          <mxGeometry x="112" y="40" width="40" height="40" as="geometry" />
        </mxCell>
        <mxCell id="6qeitvOZvcUT2dIW3SHl-53" value="&lt;font style=&quot;font-size: 16px;&quot;&gt;1&lt;/font&gt;" style="whiteSpace=wrap;html=1;aspect=fixed;fillColor=#E0E0E0;" parent="2aNpIFmSgTMSh7Xv1_dq-1" vertex="1">
          <mxGeometry x="152" y="40" width="40" height="40" as="geometry" />
        </mxCell>
        <mxCell id="6qeitvOZvcUT2dIW3SHl-54" value="&lt;font style=&quot;font-size: 16px;&quot;&gt;1&lt;/font&gt;" style="whiteSpace=wrap;html=1;aspect=fixed;fillColor=#FFFFFF;" parent="2aNpIFmSgTMSh7Xv1_dq-1" vertex="1">
          <mxGeometry x="32" y="80" width="40" height="40" as="geometry" />
        </mxCell>
        <mxCell id="6qeitvOZvcUT2dIW3SHl-55" value="&lt;font style=&quot;font-size: 16px;&quot;&gt;1&lt;/font&gt;" style="whiteSpace=wrap;html=1;aspect=fixed;fillColor=#FFFFFF;" parent="2aNpIFmSgTMSh7Xv1_dq-1" vertex="1">
          <mxGeometry x="72" y="80" width="40" height="40" as="geometry" />
        </mxCell>
        <mxCell id="6qeitvOZvcUT2dIW3SHl-56" value="&lt;font style=&quot;font-size: 16px;&quot;&gt;0&lt;/font&gt;" style="whiteSpace=wrap;html=1;aspect=fixed;fillColor=#E0E0E0;" parent="2aNpIFmSgTMSh7Xv1_dq-1" vertex="1">
          <mxGeometry x="112" y="80" width="40" height="40" as="geometry" />
        </mxCell>
        <mxCell id="6qeitvOZvcUT2dIW3SHl-57" value="&lt;font style=&quot;font-size: 16px;&quot;&gt;0&lt;/font&gt;" style="whiteSpace=wrap;html=1;aspect=fixed;fillColor=#E0E0E0;" parent="2aNpIFmSgTMSh7Xv1_dq-1" vertex="1">
          <mxGeometry x="152" y="80" width="40" height="40" as="geometry" />
        </mxCell>
        <mxCell id="6qeitvOZvcUT2dIW3SHl-58" value="" style="endArrow=none;html=1;rounded=0;" parent="2aNpIFmSgTMSh7Xv1_dq-1" edge="1">
          <mxGeometry width="50" height="50" relative="1" as="geometry">
            <mxPoint x="22" y="200" as="sourcePoint" />
            <mxPoint x="22" y="120" as="targetPoint" />
          </mxGeometry>
        </mxCell>
        <mxCell id="6qeitvOZvcUT2dIW3SHl-59" value="" style="endArrow=none;html=1;rounded=0;" parent="2aNpIFmSgTMSh7Xv1_dq-1" edge="1">
          <mxGeometry width="50" height="50" relative="1" as="geometry">
            <mxPoint x="112" y="30" as="sourcePoint" />
            <mxPoint x="192" y="30" as="targetPoint" />
          </mxGeometry>
        </mxCell>
        <mxCell id="6qeitvOZvcUT2dIW3SHl-60" value="" style="endArrow=none;html=1;rounded=0;" parent="2aNpIFmSgTMSh7Xv1_dq-1" edge="1">
          <mxGeometry width="50" height="50" relative="1" as="geometry">
            <mxPoint x="72" y="210" as="sourcePoint" />
            <mxPoint x="152" y="210" as="targetPoint" />
          </mxGeometry>
        </mxCell>
        <mxCell id="6qeitvOZvcUT2dIW3SHl-61" value="A" style="text;html=1;strokeColor=none;fillColor=none;align=center;verticalAlign=middle;whiteSpace=wrap;rounded=0;fontSize=16;" parent="2aNpIFmSgTMSh7Xv1_dq-1" vertex="1">
          <mxGeometry y="145" width="20" height="30" as="geometry" />
        </mxCell>
        <mxCell id="6qeitvOZvcUT2dIW3SHl-62" value="C" style="text;html=1;strokeColor=none;fillColor=none;align=center;verticalAlign=middle;whiteSpace=wrap;rounded=0;fontSize=16;" parent="2aNpIFmSgTMSh7Xv1_dq-1" vertex="1">
          <mxGeometry x="142" width="20" height="30" as="geometry" />
        </mxCell>
        <mxCell id="6qeitvOZvcUT2dIW3SHl-63" value="D" style="text;html=1;strokeColor=none;fillColor=none;align=center;verticalAlign=middle;whiteSpace=wrap;rounded=0;fontSize=16;" parent="2aNpIFmSgTMSh7Xv1_dq-1" vertex="1">
          <mxGeometry x="102" y="210" width="20" height="30" as="geometry" />
        </mxCell>
        <mxCell id="6qeitvOZvcUT2dIW3SHl-64" value="&lt;font style=&quot;font-size: 16px;&quot;&gt;1&lt;/font&gt;" style="whiteSpace=wrap;html=1;aspect=fixed;" parent="2aNpIFmSgTMSh7Xv1_dq-1" vertex="1">
          <mxGeometry x="32" y="120" width="40" height="40" as="geometry" />
        </mxCell>
        <mxCell id="6qeitvOZvcUT2dIW3SHl-65" value="&lt;font style=&quot;font-size: 16px;&quot;&gt;1&lt;/font&gt;" style="whiteSpace=wrap;html=1;aspect=fixed;" parent="2aNpIFmSgTMSh7Xv1_dq-1" vertex="1">
          <mxGeometry x="72" y="120" width="40" height="40" as="geometry" />
        </mxCell>
        <mxCell id="6qeitvOZvcUT2dIW3SHl-66" value="&lt;font style=&quot;font-size: 16px;&quot;&gt;0&lt;/font&gt;" style="whiteSpace=wrap;html=1;aspect=fixed;fillColor=#E0E0E0;" parent="2aNpIFmSgTMSh7Xv1_dq-1" vertex="1">
          <mxGeometry x="112" y="120" width="40" height="40" as="geometry" />
        </mxCell>
        <mxCell id="6qeitvOZvcUT2dIW3SHl-67" value="&lt;font style=&quot;font-size: 16px;&quot;&gt;0&lt;/font&gt;" style="whiteSpace=wrap;html=1;aspect=fixed;fillColor=#E0E0E0;" parent="2aNpIFmSgTMSh7Xv1_dq-1" vertex="1">
          <mxGeometry x="152" y="120" width="40" height="40" as="geometry" />
        </mxCell>
        <mxCell id="6qeitvOZvcUT2dIW3SHl-68" value="&lt;font style=&quot;font-size: 16px;&quot;&gt;1&lt;/font&gt;" style="whiteSpace=wrap;html=1;aspect=fixed;fillColor=#FFFFFF;" parent="2aNpIFmSgTMSh7Xv1_dq-1" vertex="1">
          <mxGeometry x="32" y="160" width="40" height="40" as="geometry" />
        </mxCell>
        <mxCell id="6qeitvOZvcUT2dIW3SHl-69" value="&lt;font style=&quot;font-size: 16px;&quot;&gt;0&lt;/font&gt;" style="whiteSpace=wrap;html=1;aspect=fixed;fillColor=#FFFFFF;" parent="2aNpIFmSgTMSh7Xv1_dq-1" vertex="1">
          <mxGeometry x="72" y="160" width="40" height="40" as="geometry" />
        </mxCell>
        <mxCell id="6qeitvOZvcUT2dIW3SHl-70" value="&lt;font style=&quot;font-size: 16px;&quot;&gt;0&lt;/font&gt;" style="whiteSpace=wrap;html=1;aspect=fixed;fillColor=#E0E0E0;" parent="2aNpIFmSgTMSh7Xv1_dq-1" vertex="1">
          <mxGeometry x="112" y="160" width="40" height="40" as="geometry" />
        </mxCell>
        <mxCell id="6qeitvOZvcUT2dIW3SHl-71" value="&lt;font style=&quot;font-size: 16px;&quot;&gt;1&lt;/font&gt;" style="whiteSpace=wrap;html=1;aspect=fixed;fillColor=#E0E0E0;" parent="2aNpIFmSgTMSh7Xv1_dq-1" vertex="1">
          <mxGeometry x="152" y="160" width="40" height="40" as="geometry" />
        </mxCell>
        <mxCell id="6qeitvOZvcUT2dIW3SHl-72" value="" style="endArrow=none;html=1;rounded=0;" parent="2aNpIFmSgTMSh7Xv1_dq-1" edge="1">
          <mxGeometry width="50" height="50" relative="1" as="geometry">
            <mxPoint x="202" y="160" as="sourcePoint" />
            <mxPoint x="202" y="80" as="targetPoint" />
          </mxGeometry>
        </mxCell>
        <mxCell id="6qeitvOZvcUT2dIW3SHl-73" value="B" style="text;html=1;strokeColor=none;fillColor=none;align=center;verticalAlign=middle;whiteSpace=wrap;rounded=0;fontSize=16;" parent="2aNpIFmSgTMSh7Xv1_dq-1" vertex="1">
          <mxGeometry x="204" y="105" width="20" height="30" as="geometry" />
        </mxCell>
        <mxCell id="2aNpIFmSgTMSh7Xv1_dq-15" value="" style="shape=image;verticalLabelPosition=bottom;labelBackgroundColor=default;verticalAlign=top;aspect=fixed;imageAspect=0;image=data:image/svg+xml,PHN2ZyB4bWxucz0iaHR0cDovL3d3dy53My5vcmcvMjAwMC9zdmciIGlkPSJzdmcxNjA5IiB2ZXJzaW9uPSIxLjEiIHZpZXdCb3g9IjAgMCAxNC43MjY3NDkgMTQuNzI2NzM0IiBoZWlnaHQ9IjE0LjcyNjczNG1tIiB3aWR0aD0iMTQuNzI2NzQ5bW0iPiYjeGE7ICA8ZGVmcyBpZD0iZGVmczE2MDMiLz4mI3hhOyAgJiN4YTsgICAgJiN4YTsgICAgJiN4YTsgICYjeGE7ICA8bWV0YWRhdGEgaWQ9Im1ldGFkYXRhMTYwNiI+JiN4YTsgICAgJiN4YTsgICAgICAmI3hhOyAgICAgICAgaW1hZ2Uvc3ZnK3htbCYjeGE7ICAgICAgICAmI3hhOyAgICAgICAgJiN4YTsgICAgICAmI3hhOyAgICAmI3hhOyAgPC9tZXRhZGF0YT4mI3hhOyAgPGcgdHJhbnNmb3JtPSJ0cmFuc2xhdGUoMCwtMjgyLjI3MzIxKSIgaWQ9ImxheWVyMSI+JiN4YTsgICAgPHBhdGggaWQ9InJlY3QyMTY4IiB0cmFuc2Zvcm09InNjYWxlKDAuMjY0NTgzMzMpIiBkPSJtIDAuNSwxMDY3LjM1OTQgdiA0Ni45NjA5IGMgMCw0LjI2NTggMy40MzM0MTksNy42OTkyIDcuNjk5MjE4OCw3LjY5OTIgSCA1NS4xNjAxNTYgdiAtNTQuNjYwMSB6IiBzdHlsZT0iZmlsbDojZmE2ODAwO2ZpbGwtb3BhY2l0eTowLjU7c3Ryb2tlOiNjNzM1MDA7c3Ryb2tlLXdpZHRoOjAuOTk5OTk5OTQ7c3Ryb2tlLW9wYWNpdHk6MC41Ii8+JiN4YTsgIDwvZz4mI3hhOzwvc3ZnPg==;" parent="2aNpIFmSgTMSh7Xv1_dq-31" vertex="1">
          <mxGeometry x="158" y="35" width="40" height="40" as="geometry" />
        </mxCell>
        <mxCell id="2aNpIFmSgTMSh7Xv1_dq-20" value="" style="shape=image;verticalLabelPosition=bottom;labelBackgroundColor=default;verticalAlign=top;aspect=fixed;imageAspect=0;image=data:image/svg+xml,PHN2ZyB4bWxucz0iaHR0cDovL3d3dy53My5vcmcvMjAwMC9zdmciIGlkPSJzdmcxNjA5IiB2ZXJzaW9uPSIxLjEiIHZpZXdCb3g9IjAgMCAxNC43MjY3NDkgMTQuNzI2NzM0IiBoZWlnaHQ9IjE0LjcyNjczNG1tIiB3aWR0aD0iMTQuNzI2NzQ5bW0iPiYjeGE7ICA8ZGVmcyBpZD0iZGVmczE2MDMiLz4mI3hhOyAgJiN4YTsgICAgJiN4YTsgICAgJiN4YTsgICYjeGE7ICA8bWV0YWRhdGEgaWQ9Im1ldGFkYXRhMTYwNiI+JiN4YTsgICAgJiN4YTsgICAgICAmI3hhOyAgICAgICAgaW1hZ2Uvc3ZnK3htbCYjeGE7ICAgICAgICAmI3hhOyAgICAgICAgJiN4YTsgICAgICAmI3hhOyAgICAmI3hhOyAgPC9tZXRhZGF0YT4mI3hhOyAgPGcgdHJhbnNmb3JtPSJ0cmFuc2xhdGUoMCwtMjgyLjI3MzIxKSIgaWQ9ImxheWVyMSI+JiN4YTsgICAgPHBhdGggaWQ9InJlY3QyMTY4IiB0cmFuc2Zvcm09InNjYWxlKDAuMjY0NTgzMzMpIiBkPSJtIDAuNSwxMDY3LjM1OTQgdiA0Ni45NjA5IGMgMCw0LjI2NTggMy40MzM0MTksNy42OTkyIDcuNjk5MjE4OCw3LjY5OTIgSCA1NS4xNjAxNTYgdiAtNTQuNjYwMSB6IiBzdHlsZT0iZmlsbDojZmE2ODAwO2ZpbGwtb3BhY2l0eTowLjU7c3Ryb2tlOiNjNzM1MDA7c3Ryb2tlLXdpZHRoOjAuOTk5OTk5OTQ7c3Ryb2tlLW9wYWNpdHk6MC41Ii8+JiN4YTsgIDwvZz4mI3hhOzwvc3ZnPg==;flipH=1;flipV=1;" parent="2aNpIFmSgTMSh7Xv1_dq-31" vertex="1">
          <mxGeometry x="28" y="165" width="40" height="40" as="geometry" />
        </mxCell>
        <mxCell id="2aNpIFmSgTMSh7Xv1_dq-27" value="" style="shape=image;verticalLabelPosition=bottom;labelBackgroundColor=default;verticalAlign=top;aspect=fixed;imageAspect=0;image=data:image/svg+xml,PHN2ZyB4bWxucz0iaHR0cDovL3d3dy53My5vcmcvMjAwMC9zdmciIGlkPSJzdmcxNjA5IiB2ZXJzaW9uPSIxLjEiIHZpZXdCb3g9IjAgMCAxNC43MjY3NDkgMTQuNzI2NzM0IiBoZWlnaHQ9IjE0LjcyNjczNG1tIiB3aWR0aD0iMTQuNzI2NzQ5bW0iPiYjeGE7ICA8ZGVmcyBpZD0iZGVmczE2MDMiLz4mI3hhOyAgJiN4YTsgICAgJiN4YTsgICAgJiN4YTsgICYjeGE7ICA8bWV0YWRhdGEgaWQ9Im1ldGFkYXRhMTYwNiI+JiN4YTsgICAgJiN4YTsgICAgICAmI3hhOyAgICAgICAgaW1hZ2Uvc3ZnK3htbCYjeGE7ICAgICAgICAmI3hhOyAgICAgICAgJiN4YTsgICAgICAmI3hhOyAgICAmI3hhOyAgPC9tZXRhZGF0YT4mI3hhOyAgPGcgdHJhbnNmb3JtPSJ0cmFuc2xhdGUoMCwtMjgyLjI3MzIxKSIgaWQ9ImxheWVyMSI+JiN4YTsgICAgPHBhdGggaWQ9InJlY3QyMTY4IiB0cmFuc2Zvcm09InNjYWxlKDAuMjY0NTgzMzMpIiBkPSJtIDAuNSwxMDY3LjM1OTQgdiA0Ni45NjA5IGMgMCw0LjI2NTggMy40MzM0MTksNy42OTkyIDcuNjk5MjE4OCw3LjY5OTIgSCA1NS4xNjAxNTYgdiAtNTQuNjYwMSB6IiBzdHlsZT0iZmlsbDojZmE2ODAwO2ZpbGwtb3BhY2l0eTowLjU7c3Ryb2tlOiNjNzM1MDA7c3Ryb2tlLXdpZHRoOjAuOTk5OTk5OTQ7c3Ryb2tlLW9wYWNpdHk6MC41Ii8+JiN4YTsgIDwvZz4mI3hhOzwvc3ZnPg==;flipH=0;flipV=1;" parent="2aNpIFmSgTMSh7Xv1_dq-31" vertex="1">
          <mxGeometry x="158" y="165" width="40" height="40" as="geometry" />
        </mxCell>
        <mxCell id="2aNpIFmSgTMSh7Xv1_dq-32" value="" style="group" parent="2aNpIFmSgTMSh7Xv1_dq-40" vertex="1" connectable="0">
          <mxGeometry x="240" y="240" width="224" height="240" as="geometry" />
        </mxCell>
        <mxCell id="2aNpIFmSgTMSh7Xv1_dq-2" value="" style="group" parent="2aNpIFmSgTMSh7Xv1_dq-32" vertex="1" connectable="0">
          <mxGeometry width="224" height="240" as="geometry" />
        </mxCell>
        <mxCell id="6qeitvOZvcUT2dIW3SHl-74" value="&lt;font style=&quot;font-size: 16px;&quot;&gt;1&lt;br&gt;&lt;/font&gt;" style="whiteSpace=wrap;html=1;aspect=fixed;" parent="2aNpIFmSgTMSh7Xv1_dq-2" vertex="1">
          <mxGeometry x="32" y="40" width="40" height="40" as="geometry" />
        </mxCell>
        <mxCell id="6qeitvOZvcUT2dIW3SHl-75" value="&lt;font style=&quot;font-size: 16px;&quot;&gt;0&lt;/font&gt;" style="whiteSpace=wrap;html=1;aspect=fixed;fillColor=#E0E0E0;" parent="2aNpIFmSgTMSh7Xv1_dq-2" vertex="1">
          <mxGeometry x="72" y="40" width="40" height="40" as="geometry" />
        </mxCell>
        <mxCell id="6qeitvOZvcUT2dIW3SHl-76" value="&lt;font style=&quot;font-size: 16px;&quot;&gt;0&lt;/font&gt;" style="whiteSpace=wrap;html=1;aspect=fixed;fillColor=#E0E0E0;" parent="2aNpIFmSgTMSh7Xv1_dq-2" vertex="1">
          <mxGeometry x="112" y="40" width="40" height="40" as="geometry" />
        </mxCell>
        <mxCell id="6qeitvOZvcUT2dIW3SHl-77" value="&lt;font style=&quot;font-size: 16px;&quot;&gt;1&lt;/font&gt;" style="whiteSpace=wrap;html=1;aspect=fixed;" parent="2aNpIFmSgTMSh7Xv1_dq-2" vertex="1">
          <mxGeometry x="152" y="40" width="40" height="40" as="geometry" />
        </mxCell>
        <mxCell id="6qeitvOZvcUT2dIW3SHl-78" value="&lt;font style=&quot;font-size: 16px;&quot;&gt;1&lt;/font&gt;" style="whiteSpace=wrap;html=1;aspect=fixed;fillColor=#FFFFFF;" parent="2aNpIFmSgTMSh7Xv1_dq-2" vertex="1">
          <mxGeometry x="32" y="80" width="40" height="40" as="geometry" />
        </mxCell>
        <mxCell id="6qeitvOZvcUT2dIW3SHl-79" value="&lt;font style=&quot;font-size: 16px;&quot;&gt;1&lt;/font&gt;" style="whiteSpace=wrap;html=1;aspect=fixed;fillColor=#E0E0E0;" parent="2aNpIFmSgTMSh7Xv1_dq-2" vertex="1">
          <mxGeometry x="72" y="80" width="40" height="40" as="geometry" />
        </mxCell>
        <mxCell id="6qeitvOZvcUT2dIW3SHl-80" value="&lt;font style=&quot;font-size: 16px;&quot;&gt;0&lt;/font&gt;" style="whiteSpace=wrap;html=1;aspect=fixed;fillColor=#E0E0E0;" parent="2aNpIFmSgTMSh7Xv1_dq-2" vertex="1">
          <mxGeometry x="112" y="80" width="40" height="40" as="geometry" />
        </mxCell>
        <mxCell id="6qeitvOZvcUT2dIW3SHl-81" value="&lt;font style=&quot;font-size: 16px;&quot;&gt;0&lt;/font&gt;" style="whiteSpace=wrap;html=1;aspect=fixed;fillColor=#FFFFFF;" parent="2aNpIFmSgTMSh7Xv1_dq-2" vertex="1">
          <mxGeometry x="152" y="80" width="40" height="40" as="geometry" />
        </mxCell>
        <mxCell id="6qeitvOZvcUT2dIW3SHl-82" value="" style="endArrow=none;html=1;rounded=0;" parent="2aNpIFmSgTMSh7Xv1_dq-2" edge="1">
          <mxGeometry width="50" height="50" relative="1" as="geometry">
            <mxPoint x="22" y="200" as="sourcePoint" />
            <mxPoint x="22" y="120" as="targetPoint" />
          </mxGeometry>
        </mxCell>
        <mxCell id="6qeitvOZvcUT2dIW3SHl-83" value="" style="endArrow=none;html=1;rounded=0;" parent="2aNpIFmSgTMSh7Xv1_dq-2" edge="1">
          <mxGeometry width="50" height="50" relative="1" as="geometry">
            <mxPoint x="112" y="30" as="sourcePoint" />
            <mxPoint x="192" y="30" as="targetPoint" />
          </mxGeometry>
        </mxCell>
        <mxCell id="6qeitvOZvcUT2dIW3SHl-84" value="" style="endArrow=none;html=1;rounded=0;" parent="2aNpIFmSgTMSh7Xv1_dq-2" edge="1">
          <mxGeometry width="50" height="50" relative="1" as="geometry">
            <mxPoint x="72" y="210" as="sourcePoint" />
            <mxPoint x="152" y="210" as="targetPoint" />
          </mxGeometry>
        </mxCell>
        <mxCell id="6qeitvOZvcUT2dIW3SHl-85" value="A" style="text;html=1;strokeColor=none;fillColor=none;align=center;verticalAlign=middle;whiteSpace=wrap;rounded=0;fontSize=16;" parent="2aNpIFmSgTMSh7Xv1_dq-2" vertex="1">
          <mxGeometry y="145" width="20" height="30" as="geometry" />
        </mxCell>
        <mxCell id="6qeitvOZvcUT2dIW3SHl-86" value="C" style="text;html=1;strokeColor=none;fillColor=none;align=center;verticalAlign=middle;whiteSpace=wrap;rounded=0;fontSize=16;" parent="2aNpIFmSgTMSh7Xv1_dq-2" vertex="1">
          <mxGeometry x="142" width="20" height="30" as="geometry" />
        </mxCell>
        <mxCell id="6qeitvOZvcUT2dIW3SHl-87" value="D" style="text;html=1;strokeColor=none;fillColor=none;align=center;verticalAlign=middle;whiteSpace=wrap;rounded=0;fontSize=16;" parent="2aNpIFmSgTMSh7Xv1_dq-2" vertex="1">
          <mxGeometry x="102" y="210" width="20" height="30" as="geometry" />
        </mxCell>
        <mxCell id="6qeitvOZvcUT2dIW3SHl-88" value="&lt;font style=&quot;font-size: 16px;&quot;&gt;1&lt;/font&gt;" style="whiteSpace=wrap;html=1;aspect=fixed;" parent="2aNpIFmSgTMSh7Xv1_dq-2" vertex="1">
          <mxGeometry x="32" y="120" width="40" height="40" as="geometry" />
        </mxCell>
        <mxCell id="6qeitvOZvcUT2dIW3SHl-89" value="&lt;font style=&quot;font-size: 16px;&quot;&gt;1&lt;/font&gt;" style="whiteSpace=wrap;html=1;aspect=fixed;fillColor=#E0E0E0;" parent="2aNpIFmSgTMSh7Xv1_dq-2" vertex="1">
          <mxGeometry x="72" y="120" width="40" height="40" as="geometry" />
        </mxCell>
        <mxCell id="6qeitvOZvcUT2dIW3SHl-90" value="&lt;font style=&quot;font-size: 16px;&quot;&gt;0&lt;/font&gt;" style="whiteSpace=wrap;html=1;aspect=fixed;fillColor=#E0E0E0;" parent="2aNpIFmSgTMSh7Xv1_dq-2" vertex="1">
          <mxGeometry x="112" y="120" width="40" height="40" as="geometry" />
        </mxCell>
        <mxCell id="6qeitvOZvcUT2dIW3SHl-91" value="&lt;font style=&quot;font-size: 16px;&quot;&gt;0&lt;/font&gt;" style="whiteSpace=wrap;html=1;aspect=fixed;" parent="2aNpIFmSgTMSh7Xv1_dq-2" vertex="1">
          <mxGeometry x="152" y="120" width="40" height="40" as="geometry" />
        </mxCell>
        <mxCell id="6qeitvOZvcUT2dIW3SHl-92" value="&lt;font style=&quot;font-size: 16px;&quot;&gt;1&lt;/font&gt;" style="whiteSpace=wrap;html=1;aspect=fixed;fillColor=#FFFFFF;" parent="2aNpIFmSgTMSh7Xv1_dq-2" vertex="1">
          <mxGeometry x="32" y="160" width="40" height="40" as="geometry" />
        </mxCell>
        <mxCell id="6qeitvOZvcUT2dIW3SHl-93" value="&lt;font style=&quot;font-size: 16px;&quot;&gt;0&lt;/font&gt;" style="whiteSpace=wrap;html=1;aspect=fixed;fillColor=#E0E0E0;" parent="2aNpIFmSgTMSh7Xv1_dq-2" vertex="1">
          <mxGeometry x="72" y="160" width="40" height="40" as="geometry" />
        </mxCell>
        <mxCell id="6qeitvOZvcUT2dIW3SHl-94" value="&lt;font style=&quot;font-size: 16px;&quot;&gt;0&lt;/font&gt;" style="whiteSpace=wrap;html=1;aspect=fixed;fillColor=#E0E0E0;" parent="2aNpIFmSgTMSh7Xv1_dq-2" vertex="1">
          <mxGeometry x="112" y="160" width="40" height="40" as="geometry" />
        </mxCell>
        <mxCell id="6qeitvOZvcUT2dIW3SHl-95" value="&lt;font style=&quot;font-size: 16px;&quot;&gt;1&lt;/font&gt;" style="whiteSpace=wrap;html=1;aspect=fixed;fillColor=#FFFFFF;" parent="2aNpIFmSgTMSh7Xv1_dq-2" vertex="1">
          <mxGeometry x="152" y="160" width="40" height="40" as="geometry" />
        </mxCell>
        <mxCell id="6qeitvOZvcUT2dIW3SHl-96" value="" style="endArrow=none;html=1;rounded=0;" parent="2aNpIFmSgTMSh7Xv1_dq-2" edge="1">
          <mxGeometry width="50" height="50" relative="1" as="geometry">
            <mxPoint x="202" y="160" as="sourcePoint" />
            <mxPoint x="202" y="80" as="targetPoint" />
          </mxGeometry>
        </mxCell>
        <mxCell id="6qeitvOZvcUT2dIW3SHl-97" value="B" style="text;html=1;strokeColor=none;fillColor=none;align=center;verticalAlign=middle;whiteSpace=wrap;rounded=0;fontSize=16;" parent="2aNpIFmSgTMSh7Xv1_dq-2" vertex="1">
          <mxGeometry x="204" y="105" width="20" height="30" as="geometry" />
        </mxCell>
        <mxCell id="2aNpIFmSgTMSh7Xv1_dq-12" value="" style="shape=image;verticalLabelPosition=bottom;labelBackgroundColor=default;verticalAlign=top;aspect=fixed;imageAspect=0;image=data:image/svg+xml,PHN2ZyB4bWxucz0iaHR0cDovL3d3dy53My5vcmcvMjAwMC9zdmciIGlkPSJzdmcxNjA5IiB2ZXJzaW9uPSIxLjEiIHZpZXdCb3g9IjAgMCAxNC43MjY3NDkgMTQuNzI2NzM0IiBoZWlnaHQ9IjE0LjcyNjczNG1tIiB3aWR0aD0iMTQuNzI2NzQ5bW0iPiYjeGE7ICA8ZGVmcyBpZD0iZGVmczE2MDMiLz4mI3hhOyAgJiN4YTsgICAgJiN4YTsgICAgJiN4YTsgICYjeGE7ICA8bWV0YWRhdGEgaWQ9Im1ldGFkYXRhMTYwNiI+JiN4YTsgICAgJiN4YTsgICAgICAmI3hhOyAgICAgICAgaW1hZ2Uvc3ZnK3htbCYjeGE7ICAgICAgICAmI3hhOyAgICAgICAgJiN4YTsgICAgICAmI3hhOyAgICAmI3hhOyAgPC9tZXRhZGF0YT4mI3hhOyAgPGcgdHJhbnNmb3JtPSJ0cmFuc2xhdGUoMCwtMjgyLjI3MzIxKSIgaWQ9ImxheWVyMSI+JiN4YTsgICAgPHBhdGggaWQ9InJlY3QyMTY4IiB0cmFuc2Zvcm09InNjYWxlKDAuMjY0NTgzMzMpIiBkPSJtIDAuNSwxMDY3LjM1OTQgdiA0Ni45NjA5IGMgMCw0LjI2NTggMy40MzM0MTksNy42OTkyIDcuNjk5MjE4OCw3LjY5OTIgSCA1NS4xNjAxNTYgdiAtNTQuNjYwMSB6IiBzdHlsZT0iZmlsbDojZmE2ODAwO2ZpbGwtb3BhY2l0eTowLjU7c3Ryb2tlOiNjNzM1MDA7c3Ryb2tlLXdpZHRoOjAuOTk5OTk5OTQ7c3Ryb2tlLW9wYWNpdHk6MC41Ii8+JiN4YTsgIDwvZz4mI3hhOzwvc3ZnPg==;" parent="2aNpIFmSgTMSh7Xv1_dq-32" vertex="1">
          <mxGeometry x="158" y="35" width="40" height="40" as="geometry" />
        </mxCell>
        <mxCell id="2aNpIFmSgTMSh7Xv1_dq-16" value="" style="shape=image;verticalLabelPosition=bottom;labelBackgroundColor=default;verticalAlign=top;aspect=fixed;imageAspect=0;image=data:image/svg+xml,PHN2ZyB4bWxucz0iaHR0cDovL3d3dy53My5vcmcvMjAwMC9zdmciIGlkPSJzdmcxNjA5IiB2ZXJzaW9uPSIxLjEiIHZpZXdCb3g9IjAgMCAxNC43MjY3NDkgMTQuNzI2NzM0IiBoZWlnaHQ9IjE0LjcyNjczNG1tIiB3aWR0aD0iMTQuNzI2NzQ5bW0iPiYjeGE7ICA8ZGVmcyBpZD0iZGVmczE2MDMiLz4mI3hhOyAgJiN4YTsgICAgJiN4YTsgICAgJiN4YTsgICYjeGE7ICA8bWV0YWRhdGEgaWQ9Im1ldGFkYXRhMTYwNiI+JiN4YTsgICAgJiN4YTsgICAgICAmI3hhOyAgICAgICAgaW1hZ2Uvc3ZnK3htbCYjeGE7ICAgICAgICAmI3hhOyAgICAgICAgJiN4YTsgICAgICAmI3hhOyAgICAmI3hhOyAgPC9tZXRhZGF0YT4mI3hhOyAgPGcgdHJhbnNmb3JtPSJ0cmFuc2xhdGUoMCwtMjgyLjI3MzIxKSIgaWQ9ImxheWVyMSI+JiN4YTsgICAgPHBhdGggaWQ9InJlY3QyMTY4IiB0cmFuc2Zvcm09InNjYWxlKDAuMjY0NTgzMzMpIiBkPSJtIDAuNSwxMDY3LjM1OTQgdiA0Ni45NjA5IGMgMCw0LjI2NTggMy40MzM0MTksNy42OTkyIDcuNjk5MjE4OCw3LjY5OTIgSCA1NS4xNjAxNTYgdiAtNTQuNjYwMSB6IiBzdHlsZT0iZmlsbDojZmE2ODAwO2ZpbGwtb3BhY2l0eTowLjU7c3Ryb2tlOiNjNzM1MDA7c3Ryb2tlLXdpZHRoOjAuOTk5OTk5OTQ7c3Ryb2tlLW9wYWNpdHk6MC41Ii8+JiN4YTsgIDwvZz4mI3hhOzwvc3ZnPg==;flipH=1;" parent="2aNpIFmSgTMSh7Xv1_dq-32" vertex="1">
          <mxGeometry x="28" y="35" width="40" height="40" as="geometry" />
        </mxCell>
        <mxCell id="2aNpIFmSgTMSh7Xv1_dq-21" value="" style="shape=image;verticalLabelPosition=bottom;labelBackgroundColor=default;verticalAlign=top;aspect=fixed;imageAspect=0;image=data:image/svg+xml,PHN2ZyB4bWxucz0iaHR0cDovL3d3dy53My5vcmcvMjAwMC9zdmciIGlkPSJzdmcxNjA5IiB2ZXJzaW9uPSIxLjEiIHZpZXdCb3g9IjAgMCAxNC43MjY3NDkgMTQuNzI2NzM0IiBoZWlnaHQ9IjE0LjcyNjczNG1tIiB3aWR0aD0iMTQuNzI2NzQ5bW0iPiYjeGE7ICA8ZGVmcyBpZD0iZGVmczE2MDMiLz4mI3hhOyAgJiN4YTsgICAgJiN4YTsgICAgJiN4YTsgICYjeGE7ICA8bWV0YWRhdGEgaWQ9Im1ldGFkYXRhMTYwNiI+JiN4YTsgICAgJiN4YTsgICAgICAmI3hhOyAgICAgICAgaW1hZ2Uvc3ZnK3htbCYjeGE7ICAgICAgICAmI3hhOyAgICAgICAgJiN4YTsgICAgICAmI3hhOyAgICAmI3hhOyAgPC9tZXRhZGF0YT4mI3hhOyAgPGcgdHJhbnNmb3JtPSJ0cmFuc2xhdGUoMCwtMjgyLjI3MzIxKSIgaWQ9ImxheWVyMSI+JiN4YTsgICAgPHBhdGggaWQ9InJlY3QyMTY4IiB0cmFuc2Zvcm09InNjYWxlKDAuMjY0NTgzMzMpIiBkPSJtIDAuNSwxMDY3LjM1OTQgdiA0Ni45NjA5IGMgMCw0LjI2NTggMy40MzM0MTksNy42OTkyIDcuNjk5MjE4OCw3LjY5OTIgSCA1NS4xNjAxNTYgdiAtNTQuNjYwMSB6IiBzdHlsZT0iZmlsbDojZmE2ODAwO2ZpbGwtb3BhY2l0eTowLjU7c3Ryb2tlOiNjNzM1MDA7c3Ryb2tlLXdpZHRoOjAuOTk5OTk5OTQ7c3Ryb2tlLW9wYWNpdHk6MC41Ii8+JiN4YTsgIDwvZz4mI3hhOzwvc3ZnPg==;flipH=1;flipV=1;" parent="2aNpIFmSgTMSh7Xv1_dq-32" vertex="1">
          <mxGeometry x="28" y="165" width="40" height="40" as="geometry" />
        </mxCell>
        <mxCell id="2aNpIFmSgTMSh7Xv1_dq-26" value="" style="shape=image;verticalLabelPosition=bottom;labelBackgroundColor=default;verticalAlign=top;aspect=fixed;imageAspect=0;image=data:image/svg+xml,PHN2ZyB4bWxucz0iaHR0cDovL3d3dy53My5vcmcvMjAwMC9zdmciIGlkPSJzdmcxNjA5IiB2ZXJzaW9uPSIxLjEiIHZpZXdCb3g9IjAgMCAxNC43MjY3NDkgMTQuNzI2NzM0IiBoZWlnaHQ9IjE0LjcyNjczNG1tIiB3aWR0aD0iMTQuNzI2NzQ5bW0iPiYjeGE7ICA8ZGVmcyBpZD0iZGVmczE2MDMiLz4mI3hhOyAgJiN4YTsgICAgJiN4YTsgICAgJiN4YTsgICYjeGE7ICA8bWV0YWRhdGEgaWQ9Im1ldGFkYXRhMTYwNiI+JiN4YTsgICAgJiN4YTsgICAgICAmI3hhOyAgICAgICAgaW1hZ2Uvc3ZnK3htbCYjeGE7ICAgICAgICAmI3hhOyAgICAgICAgJiN4YTsgICAgICAmI3hhOyAgICAmI3hhOyAgPC9tZXRhZGF0YT4mI3hhOyAgPGcgdHJhbnNmb3JtPSJ0cmFuc2xhdGUoMCwtMjgyLjI3MzIxKSIgaWQ9ImxheWVyMSI+JiN4YTsgICAgPHBhdGggaWQ9InJlY3QyMTY4IiB0cmFuc2Zvcm09InNjYWxlKDAuMjY0NTgzMzMpIiBkPSJtIDAuNSwxMDY3LjM1OTQgdiA0Ni45NjA5IGMgMCw0LjI2NTggMy40MzM0MTksNy42OTkyIDcuNjk5MjE4OCw3LjY5OTIgSCA1NS4xNjAxNTYgdiAtNTQuNjYwMSB6IiBzdHlsZT0iZmlsbDojZmE2ODAwO2ZpbGwtb3BhY2l0eTowLjU7c3Ryb2tlOiNjNzM1MDA7c3Ryb2tlLXdpZHRoOjAuOTk5OTk5OTQ7c3Ryb2tlLW9wYWNpdHk6MC41Ii8+JiN4YTsgIDwvZz4mI3hhOzwvc3ZnPg==;flipH=0;flipV=1;" parent="2aNpIFmSgTMSh7Xv1_dq-32" vertex="1">
          <mxGeometry x="158" y="165" width="40" height="40" as="geometry" />
        </mxCell>
        <mxCell id="2aNpIFmSgTMSh7Xv1_dq-34" value="" style="shape=image;verticalLabelPosition=bottom;labelBackgroundColor=default;verticalAlign=top;aspect=fixed;imageAspect=0;image=data:image/svg+xml,PHN2ZyB4bWxucz0iaHR0cDovL3d3dy53My5vcmcvMjAwMC9zdmciIGlkPSJzdmcxNjA5IiB2ZXJzaW9uPSIxLjEiIHZpZXdCb3g9IjAgMCAxNC43MjY3NDkgMTQuNzI2NzM0IiBoZWlnaHQ9IjE0LjcyNjczNG1tIiB3aWR0aD0iMTQuNzI2NzQ5bW0iPiYjeGE7ICA8ZGVmcyBpZD0iZGVmczE2MDMiLz4mI3hhOyAgJiN4YTsgICAgJiN4YTsgICAgJiN4YTsgICYjeGE7ICA8bWV0YWRhdGEgaWQ9Im1ldGFkYXRhMTYwNiI+JiN4YTsgICAgJiN4YTsgICAgICAmI3hhOyAgICAgICAgaW1hZ2Uvc3ZnK3htbCYjeGE7ICAgICAgICAmI3hhOyAgICAgICAgJiN4YTsgICAgICAmI3hhOyAgICAmI3hhOyAgPC9tZXRhZGF0YT4mI3hhOyAgPGcgdHJhbnNmb3JtPSJ0cmFuc2xhdGUoMCwtMjgyLjI3MzIxKSIgaWQ9ImxheWVyMSI+JiN4YTsgICAgPHBhdGggaWQ9InJlY3QyMTY4IiB0cmFuc2Zvcm09InNjYWxlKDAuMjY0NTgzMzMpIiBkPSJtIDAuNSwxMDY3LjM1OTQgdiA0Ni45NjA5IGMgMCw0LjI2NTggMy40MzM0MTksNy42OTkyIDcuNjk5MjE4OCw3LjY5OTIgSCA1NS4xNjAxNTYgdiAtNTQuNjYwMSB6IiBzdHlsZT0iZmlsbDojZmE2ODAwO2ZpbGwtb3BhY2l0eTowLjU7c3Ryb2tlOiNjNzM1MDA7c3Ryb2tlLXdpZHRoOjAuOTk5OTk5OTQ7c3Ryb2tlLW9wYWNpdHk6MC41Ii8+JiN4YTsgIDwvZz4mI3hhOzwvc3ZnPg==;flipH=1;" parent="2aNpIFmSgTMSh7Xv1_dq-40" vertex="1">
          <mxGeometry x="28" y="275" width="40" height="40" as="geometry" />
        </mxCell>
        <mxCell id="2aNpIFmSgTMSh7Xv1_dq-36" value="" style="rounded=1;whiteSpace=wrap;html=1;arcSize=8;fillColor=#d80073;fontColor=#ffffff;strokeColor=#A50040;opacity=50;" parent="2aNpIFmSgTMSh7Xv1_dq-40" vertex="1">
          <mxGeometry x="37" y="325" width="70" height="70" as="geometry" />
        </mxCell>
        <mxCell id="2aNpIFmSgTMSh7Xv1_dq-37" value="" style="rounded=1;whiteSpace=wrap;html=1;arcSize=8;fillColor=#d80073;fontColor=#ffffff;strokeColor=#A50040;opacity=50;" parent="2aNpIFmSgTMSh7Xv1_dq-40" vertex="1">
          <mxGeometry x="277" y="325" width="70" height="70" as="geometry" />
        </mxCell>
        <mxCell id="2aNpIFmSgTMSh7Xv1_dq-38" value="" style="rounded=1;whiteSpace=wrap;html=1;arcSize=8;fillColor=#d80073;fontColor=#ffffff;strokeColor=#A50040;opacity=50;" parent="2aNpIFmSgTMSh7Xv1_dq-40" vertex="1">
          <mxGeometry x="277" y="85" width="70" height="70" as="geometry" />
        </mxCell>
        <mxCell id="2aNpIFmSgTMSh7Xv1_dq-39" value="" style="rounded=1;whiteSpace=wrap;html=1;arcSize=8;fillColor=#d80073;fontColor=#ffffff;strokeColor=#A50040;opacity=50;" parent="2aNpIFmSgTMSh7Xv1_dq-40" vertex="1">
          <mxGeometry x="37" y="85" width="70" height="70" as="geometry" />
        </mxCell>
      </root>
    </mxGraphModel>
  </diagram>
</mxfile>
